<svg width="56" height="40" viewBox="0 0 56 40" fill="none" xmlns="http://www.w3.org/2000/svg">
<path d="M45.06 33.2398H36.226V5.92278C36.226 5.65757 36.1206 5.40321 35.9331 5.21568C35.7456 5.02814 35.4912 4.92278 35.226 4.92278C34.9608 4.92278 34.7064 5.02814 34.5189 5.21568C34.3314 5.40321 34.226 5.65757 34.226 5.92278V19.4208H32.95V3.02078C32.95 1.41778 31.757 0.0937835 30.231 0.00778345C29.423 -0.0542165 28.621 0.256784 28.015 0.847784C27.7445 1.11693 27.5302 1.43726 27.3848 1.79009C27.2394 2.14291 27.1657 2.52117 27.168 2.90278V12.9548L24.015 6.56178C23.6527 5.81637 23.0876 5.1882 22.3845 4.74937C21.6814 4.31053 20.8688 4.07881 20.04 4.08078H10.065C8.358 4.08078 6.969 5.47778 6.969 7.19578V22.6578H4.169C3.06319 22.6596 2.00326 23.1 1.22171 23.8823C0.440153 24.6646 0.000792853 25.725 0 26.8308V33.1808C0 34.3158 0.916 35.2408 2.041 35.2408H2.651C2.7747 36.5721 3.40296 37.8058 4.407 38.6888C4.92658 39.1475 5.53202 39.4987 6.18825 39.7218C6.84448 39.945 7.53846 40.0357 8.23 39.9888C10.841 39.8178 12.873 37.7628 13.122 35.2408H20.352C20.4754 36.572 21.1033 37.8056 22.107 38.6888C22.6267 39.1477 23.2323 39.4989 23.8887 39.722C24.5451 39.9452 25.2393 40.0358 25.931 39.9888C28.541 39.8178 30.573 37.7628 30.823 35.2408H31.795C32.432 35.2408 32.95 34.7208 32.95 34.0828V31.9328H34.226V34.0268C34.226 34.6948 34.769 35.2388 35.436 35.2388H45.06C45.3252 35.2388 45.5796 35.1334 45.7671 34.9459C45.9546 34.7584 46.06 34.504 46.06 34.2388C46.06 33.9736 45.9546 33.7192 45.7671 33.5317C45.5796 33.3441 45.3252 33.2398 45.06 33.2398ZM12.765 6.08078H20.04C20.97 6.08078 21.806 6.60478 22.222 7.44678L27.168 17.4758V20.4668L23.998 18.2998L24.241 17.7628C24.3386 17.5231 24.3396 17.255 24.2438 17.0147C24.1481 16.7743 23.9629 16.5803 23.7273 16.4735C23.4916 16.3667 23.2237 16.3552 22.9798 16.4416C22.7359 16.528 22.5349 16.7054 22.419 16.9368L21.029 20.0038C20.9314 20.2434 20.9304 20.5115 21.0262 20.7519C21.1219 20.9923 21.3071 21.1862 21.5427 21.2931C21.7784 21.3999 22.0463 21.4113 22.2902 21.325C22.5341 21.2386 22.7351 21.0611 22.851 20.8298L23.159 20.1498L27.168 22.8898V26.6238H16.772V24.7188C16.772 23.5838 15.856 22.6588 14.732 22.6588H12.765V6.08078ZM8.969 7.19678C8.969 6.58178 9.461 6.08078 10.065 6.08078H10.765V22.6588H8.969V7.19678ZM10.351 36.8868C10.0677 37.2107 9.72292 37.4752 9.33672 37.665C8.95052 37.8549 8.53052 37.9663 8.101 37.9928C7.67177 38.0225 7.24092 37.9666 6.83352 37.8282C6.42613 37.6898 6.05033 37.4718 5.728 37.1868C5.40352 36.9037 5.13841 36.5591 4.94805 36.1729C4.75769 35.7867 4.64584 35.3665 4.619 34.9368C4.59057 34.4894 4.65416 34.0409 4.80584 33.619C4.95752 33.1972 5.19407 32.8109 5.50089 32.484C5.8077 32.1571 6.17826 31.8966 6.5897 31.7186C7.00113 31.5405 7.44469 31.4487 7.893 31.4488C8.687 31.4488 9.446 31.7328 10.05 32.2618C10.3741 32.545 10.6388 32.8897 10.8288 33.2759C11.0188 33.6621 11.1304 34.0822 11.157 34.5118C11.1861 34.9411 11.1299 35.372 10.9916 35.7794C10.8532 36.1869 10.6355 36.5629 10.351 36.8858V36.8868ZM28.051 36.8868C27.7677 37.2107 27.4229 37.4752 27.0367 37.665C26.6505 37.8549 26.2305 37.9663 25.801 37.9928C25.3717 38.0229 24.9408 37.9671 24.5333 37.8288C24.1259 37.6904 23.7501 37.4721 23.428 37.1868C23.1035 36.9037 22.8384 36.5591 22.6481 36.1729C22.4577 35.7867 22.3458 35.3665 22.319 34.9368C22.263 34.0628 22.549 33.2198 23.126 32.5628C23.4332 32.211 23.8125 31.9294 24.2382 31.7372C24.6639 31.545 25.1259 31.4466 25.593 31.4488C26.388 31.4488 27.146 31.7328 27.75 32.2618C28.0741 32.545 28.3388 32.8897 28.5288 33.2759C28.7188 33.6621 28.8304 34.0822 28.857 34.5118C28.8861 34.9411 28.8299 35.372 28.6916 35.7794C28.5532 36.1869 28.3355 36.5629 28.051 36.8858V36.8868ZM30.951 33.2418H30.643C29.962 30.9218 27.746 29.2858 25.246 29.4598C24.5542 29.503 23.8778 29.683 23.256 29.9892C22.6341 30.2954 22.0791 30.7218 21.623 31.2438C21.1197 31.8224 20.7497 32.5045 20.539 33.2418H12.943C12.261 30.9218 10.042 29.2858 7.546 29.4598C5.29 29.6068 3.47 31.1638 2.852 33.2098L2 33.1808V29.3508H3.17C3.43522 29.3508 3.68957 29.2454 3.87711 29.0579C4.06464 28.8704 4.17 28.616 4.17 28.3508C4.17 28.0856 4.06464 27.8312 3.87711 27.6437C3.68957 27.4561 3.43522 27.3508 3.17 27.3508H2V26.8328C2 25.6348 2.973 24.6598 4.169 24.6598L14.772 24.7198V27.4518C14.772 28.0988 15.297 28.6248 15.942 28.6248H27.392C28.372 28.6248 29.168 27.8218 29.168 26.8328V2.90378C29.168 2.65778 29.258 2.43178 29.418 2.27378C29.5075 2.17961 29.6168 2.10653 29.7381 2.05983C29.8593 2.01313 29.9894 1.99399 30.119 2.00378C30.569 2.03078 30.95 2.49678 30.95 3.02178L30.951 33.2418ZM34.226 29.9338H32.95V21.4208H34.226V29.9338Z" fill="#29166F"/>
<path d="M54.7999 17.2748H53.2649V7.9008C53.2649 7.2378 52.7269 6.70081 52.0649 6.70081H38.5879C37.9259 6.70081 37.3879 7.2378 37.3879 7.9008V30.6698C37.3879 31.3668 37.9539 31.9328 38.6509 31.9328H54.7999C55.4619 31.9328 55.9999 31.3948 55.9999 30.7328V18.4748C55.9999 17.8128 55.4619 17.2748 54.7999 17.2748ZM44.8599 8.6998H45.7939V10.5038H44.8589L44.8599 8.6998ZM39.3889 8.6998H42.8589V11.4148C42.8589 12.0148 43.3539 12.5038 43.9599 12.5038H46.6929C47.2999 12.5038 47.7929 12.0148 47.7929 11.4138V8.70081H51.2649V17.2758H39.3889V8.70081V8.6998ZM47.2189 19.2738V21.2528H46.1689V19.2738H47.2189ZM53.9999 29.9338H39.3889V19.2738H44.1689V22.1458C44.1689 22.7558 44.6639 23.2528 45.2729 23.2528H48.1159C48.7249 23.2528 49.2199 22.7568 49.2199 22.1458V19.2738H53.9999V29.9338Z" fill="#29166F"/>
</svg>
