<svg width="169" height="169" viewBox="0 0 169 169" fill="none" xmlns="http://www.w3.org/2000/svg">
<path opacity="0.5" d="M164.125 79.4291L159.887 78.8572C159.318 78.7799 158.779 78.5618 158.323 78.2238C157.867 77.8859 157.508 77.4396 157.282 76.9281C156.463 75.0985 155.427 73.3677 154.194 71.7709C153.847 71.3243 153.625 70.7981 153.55 70.2437C153.475 69.6893 153.55 69.1256 153.767 68.6075L155.354 64.8236C155.659 64.0997 155.682 63.2932 155.42 62.5539C155.157 61.8146 154.627 61.1928 153.927 60.8038L146.063 56.4287C145.368 56.0422 144.552 55.9112 143.765 56.0595C142.978 56.2079 142.273 56.6256 141.778 57.2365L139.136 60.4969C138.788 60.9309 138.33 61.2707 137.806 61.4835C137.283 61.6963 136.712 61.7749 136.148 61.7119C134.07 61.4706 131.97 61.4684 129.892 61.7054C129.324 61.7714 128.748 61.6947 128.219 61.4824C127.69 61.2702 127.227 60.9297 126.874 60.4936L124.239 57.2429C123.744 56.6321 123.038 56.2143 122.252 56.066C121.465 55.9177 120.649 56.0487 119.954 56.4351L112.083 60.8168C111.385 61.2062 110.855 61.8276 110.593 62.5659C110.33 63.3043 110.353 64.1097 110.656 64.8333L112.243 68.6172C112.459 69.1352 112.532 69.6984 112.457 70.2521C112.381 70.8058 112.16 71.3312 111.813 71.7774C110.578 73.3751 109.541 75.1083 108.725 76.941C108.498 77.4526 108.14 77.899 107.683 78.2374C107.227 78.5758 106.689 78.7948 106.12 78.8734L101.875 79.4453C101.078 79.5537 100.348 79.9375 99.8208 80.526C99.2931 81.1145 99.0028 81.868 99.0033 82.6475L99 91.3688C98.9995 92.1489 99.2903 92.9028 99.8187 93.4914C100.347 94.0799 101.077 94.4634 101.875 94.5711L106.113 95.143C106.682 95.2208 107.22 95.4391 107.677 95.777C108.133 96.1149 108.491 96.5609 108.718 97.0721C109.128 97.9867 109.591 98.8779 110.105 99.7412C110.623 100.601 111.189 101.431 111.803 102.229C112.15 102.676 112.373 103.202 112.448 103.756C112.524 104.31 112.449 104.874 112.233 105.393L110.642 109.177C110.339 109.901 110.317 110.707 110.58 111.446C110.843 112.186 111.373 112.807 112.073 113.196L119.937 117.572C120.632 117.958 121.447 118.089 122.233 117.94C123.02 117.792 123.725 117.374 124.219 116.764L126.86 113.503C127.209 113.07 127.667 112.73 128.191 112.518C128.714 112.305 129.285 112.226 129.848 112.288C131.926 112.53 134.026 112.532 136.105 112.295C136.673 112.229 137.25 112.305 137.779 112.518C138.308 112.73 138.772 113.07 139.126 113.507L141.761 116.757C142.255 117.368 142.96 117.786 143.747 117.934C144.533 118.083 145.348 117.952 146.043 117.565L153.914 113.183C154.613 112.795 155.144 112.174 155.406 111.435C155.669 110.696 155.646 109.89 155.341 109.167L153.757 105.383C153.54 104.865 153.465 104.302 153.54 103.748C153.615 103.195 153.837 102.669 154.184 102.223C155.42 100.625 156.458 98.892 157.275 97.0592C157.501 96.5478 157.859 96.1014 158.315 95.763C158.77 95.4245 159.308 95.2054 159.877 95.1269L164.122 94.5549C164.919 94.4468 165.649 94.0631 166.177 93.4747C166.706 92.8862 166.997 92.1326 166.997 91.3527L167 82.6314C167 81.8513 166.71 81.0974 166.181 80.5089C165.653 79.9203 164.923 79.5368 164.125 79.4291ZM138.896 96.8459C136.187 98.3556 132.972 98.7656 129.952 97.9865C126.933 97.2073 124.354 95.3023 122.778 92.6872C122.005 91.3935 121.503 89.9644 121.301 88.482C121.1 86.9996 121.203 85.4932 121.605 84.0496C122.006 82.606 122.699 81.2536 123.642 80.0702C124.585 78.8868 125.76 77.8958 127.1 77.1543C129.81 75.6446 133.026 75.2346 136.046 76.0137C139.066 76.7929 141.646 78.6979 143.222 81.313C143.995 82.6069 144.497 84.0362 144.698 85.5187C144.899 87.0012 144.796 88.5076 144.394 89.9512C143.992 91.3949 143.299 92.7472 142.355 93.9305C141.412 95.1137 140.236 96.1046 138.896 96.8459Z" fill="#8B8888"/>
<path opacity="0.5" d="M98.133 37.4321L89.7849 36.2845C89.2118 36.2088 88.6689 35.9855 88.2107 35.6369C87.7524 35.2883 87.3949 34.8267 87.174 34.2985C86.5037 32.6718 85.7203 31.093 84.8293 29.5734C83.9373 28.0569 82.9416 26.6023 81.8492 25.2199C81.493 24.766 81.2642 24.2273 81.186 23.658C81.1077 23.0888 81.1828 22.5092 81.4035 21.9778L84.5499 14.3329C84.8539 13.5962 84.8771 12.7756 84.6153 12.0233C84.3535 11.271 83.8245 10.6382 83.1264 10.2424L69.3703 2.43636C68.6774 2.04301 67.8643 1.90961 67.0801 2.06057C66.2958 2.21154 65.5928 2.63677 65.0998 3.2584L59.9013 9.8018C59.5469 10.2517 59.0794 10.6019 58.5455 10.8177C58.0116 11.0334 57.4298 11.1072 56.8581 11.0316C53.3078 10.5405 49.7058 10.5394 46.1552 11.0283C45.584 11.1042 45.0026 11.0306 44.4691 10.8148C43.9357 10.599 43.4688 10.2486 43.1153 9.79851L37.9302 3.26826C37.4369 2.64599 36.7333 2.22034 35.9483 2.06936C35.1633 1.91837 34.3496 2.05217 33.6563 2.44623L19.8936 10.2621C19.1957 10.6573 18.6668 11.2895 18.405 12.0413C18.1431 12.793 18.1663 13.6132 18.4701 14.3493L21.6098 21.9909C21.8303 22.5216 21.9055 23.1004 21.8279 23.669C21.7502 24.2376 21.5224 24.7759 21.1674 25.2298C18.9705 27.9988 17.1759 31.0579 15.8359 34.3182C15.6154 34.8464 15.2585 35.3081 14.8009 35.6571C14.3433 36.0062 13.8011 36.2305 13.2284 36.3075L4.87029 37.4617C4.07595 37.5712 3.34849 37.9611 2.82217 38.5594C2.29585 39.1577 2.00619 39.924 2.00665 40.7169L2 56.306C1.99954 57.0998 2.28955 57.8669 2.81649 58.4658C3.34344 59.0648 4.07174 59.455 4.86696 59.5646L13.2151 60.7121C13.7882 60.7891 14.3309 61.0133 14.789 61.3623C15.2471 61.7114 15.6047 62.1731 15.8259 62.7014C16.4963 64.3281 17.2797 65.9069 18.1707 67.4265C19.0627 68.942 20.0584 70.3954 21.1508 71.7767C21.507 72.2306 21.7358 72.7693 21.814 73.3386C21.8923 73.9078 21.8172 74.4874 21.5965 75.0188L18.4501 82.667C18.1463 83.4037 18.1232 84.2243 18.385 84.9765C18.6468 85.7288 19.1757 86.3616 19.8736 86.7575L33.6297 94.5635C34.3226 94.957 35.1356 95.0904 35.9199 94.9394C36.7042 94.7885 37.4073 94.3632 37.9002 93.7415L43.0987 87.1981C43.4526 86.7476 43.92 86.3969 44.454 86.1811C44.9881 85.9653 45.5701 85.8919 46.1419 85.9683C49.6922 86.4599 53.2945 86.4599 56.8448 85.9683C57.4163 85.8938 57.9975 85.9684 58.5308 86.1847C59.0641 86.401 59.5309 86.7515 59.8847 87.2014L65.0698 93.7316C65.5636 94.3532 66.2672 94.7784 67.052 94.9293C67.8367 95.0802 68.6502 94.9469 69.3437 94.5537L83.1064 86.7378C83.8045 86.342 84.3336 85.7092 84.5954 84.9569C84.8572 84.2046 84.8339 83.3839 84.5299 82.6473L81.3902 75.009C81.1696 74.4783 81.0943 73.8995 81.172 73.3309C81.2496 72.7623 81.4775 72.224 81.8326 71.7701C84.0288 69.0007 85.8233 65.9417 87.1641 62.6817C87.3846 62.1535 87.7415 61.6918 88.1991 61.3428C88.6567 60.9937 89.1989 60.7694 89.7716 60.6924L98.1297 59.5382C98.924 59.4287 99.6515 59.0388 100.178 58.4405C100.704 57.8422 100.994 57.0759 100.993 56.283L101 40.6906C101 39.897 100.71 39.1301 100.183 38.5313C99.656 37.9325 98.928 37.5421 98.133 37.4321ZM60.7095 64.191C56.4787 66.5964 51.4573 67.2497 46.741 66.0084C42.0248 64.7671 37.9966 61.732 35.5355 57.5654C34.3272 55.5032 33.5433 53.2253 33.229 50.8625C32.9146 48.4997 33.076 46.0988 33.7038 43.7979C34.3316 41.497 35.4135 39.3416 36.8871 37.4557C38.3608 35.5697 40.1971 33.9905 42.2905 32.8089C46.5209 30.4021 51.5429 29.7479 56.2596 30.9893C60.9762 32.2307 65.0045 35.2668 67.4645 39.4345C68.6726 41.4967 69.4563 43.7747 69.7705 46.1374C70.0848 48.5002 69.9233 50.901 69.2955 53.2018C68.6677 55.5026 67.586 57.658 66.1124 59.544C64.6389 61.4299 62.8027 63.0092 60.7095 64.191Z" fill="#8B8888"/>
<path opacity="0.5" d="M102.905 133.17L99.8389 124.215C99.702 123.815 99.4263 123.479 99.0625 123.267C98.6987 123.055 98.2711 122.983 97.8585 123.063L92.868 124.043C92.5675 124.101 92.257 124.079 91.9677 123.979C91.6784 123.878 91.4205 123.703 91.2199 123.47C89.8437 121.869 88.2475 120.472 86.4795 119.324C86.2225 119.156 86.0139 118.924 85.8747 118.65C85.7355 118.376 85.6707 118.069 85.6867 117.762L85.9531 112.652C85.9749 112.23 85.8444 111.814 85.5857 111.481C85.3271 111.148 84.9576 110.92 84.5451 110.839L75.3011 109.032C74.8885 108.952 74.461 109.024 74.0971 109.236C73.7333 109.447 73.4576 109.784 73.3207 110.184L71.666 115.022C71.5676 115.314 71.3934 115.574 71.1615 115.776C70.9296 115.978 70.6484 116.114 70.3469 116.17C68.2804 116.567 66.2809 117.259 64.409 118.225C64.1369 118.366 63.8326 118.432 63.5269 118.416C63.2213 118.401 62.9252 118.304 62.6688 118.136L58.4053 115.349C58.0526 115.119 57.6289 115.024 57.2123 115.083C56.7958 115.142 56.4145 115.351 56.1387 115.67L49.964 122.818C49.688 123.137 49.5359 123.546 49.5359 123.968C49.5359 124.391 49.688 124.8 49.964 125.118L53.2998 128.977C53.5001 129.209 53.636 129.491 53.6937 129.793C53.7515 130.095 53.7291 130.407 53.6287 130.698C52.9399 132.697 52.5379 134.786 52.4346 136.899C52.4202 137.208 52.325 137.507 52.1586 137.766C51.9922 138.025 51.7605 138.235 51.4871 138.375L46.954 140.698C46.5788 140.889 46.2851 141.21 46.1272 141.602C45.9694 141.994 45.958 142.43 46.0954 142.83L49.1613 151.785C49.2976 152.185 49.5732 152.522 49.9372 152.733C50.3012 152.945 50.729 153.017 51.1417 152.936L56.1355 151.957C56.4362 151.898 56.7471 151.92 57.0366 152.021C57.326 152.123 57.5838 152.299 57.7836 152.533C59.1611 154.132 60.7571 155.527 62.524 156.676C62.781 156.843 62.9896 157.076 63.1288 157.35C63.2679 157.624 63.3328 157.93 63.3168 158.238L63.0504 163.347C63.0274 163.77 63.1574 164.186 63.4163 164.52C63.6752 164.853 64.0454 165.081 64.4583 165.161L73.6991 166.968C74.1117 167.049 74.5396 166.977 74.9036 166.765C75.2676 166.553 75.5432 166.216 75.6795 165.816L77.3342 160.978C77.4341 160.687 77.6087 160.427 77.8403 160.225C78.072 160.024 78.3524 159.887 78.6533 159.829C80.7212 159.434 82.722 158.742 84.5945 157.774C84.8668 157.634 85.171 157.569 85.4765 157.585C85.782 157.6 86.078 157.697 86.3347 157.864L90.5949 160.65C90.9475 160.881 91.3713 160.976 91.7879 160.917C92.2045 160.858 92.5859 160.649 92.8615 160.329L99.0395 153.181C99.3148 152.862 99.4663 152.454 99.4663 152.031C99.4663 151.609 99.3148 151.2 99.0395 150.881L95.7037 147.023C95.5023 146.791 95.3654 146.509 95.307 146.207C95.2486 145.905 95.2709 145.593 95.3715 145.302C96.0632 143.303 96.4664 141.214 96.5689 139.1C96.5826 138.792 96.6775 138.492 96.844 138.233C97.0105 137.974 97.2425 137.764 97.5164 137.624L102.05 135.304C102.424 135.112 102.716 134.79 102.873 134.398C103.031 134.006 103.042 133.57 102.905 133.17ZM80.6074 143.339C79.5579 144.554 78.1737 145.429 76.6299 145.853C75.0862 146.277 73.4522 146.23 71.9346 145.72C70.4169 145.209 69.0839 144.258 68.104 142.985C67.1242 141.712 66.5415 140.176 66.4297 138.57C66.3178 136.964 66.6819 135.361 67.4758 133.964C68.2698 132.566 69.4579 131.437 70.8899 130.718C72.322 130 73.9336 129.725 75.521 129.928C77.1084 130.131 78.6003 130.803 79.808 131.859C81.4265 133.276 82.4199 135.28 82.5698 137.433C82.7197 139.586 82.0138 141.71 80.6074 143.339Z" fill="#8B8888"/>
<path opacity="0.5" d="M61.9746 67.0472C64.3348 65.6985 66.4049 63.8964 68.0661 61.7446C69.7272 59.5928 70.9465 57.1338 71.6537 54.509C72.361 51.8843 72.5424 49.1455 72.1873 46.4504C71.8323 43.7553 70.9479 41.157 69.585 38.8049C66.8097 34.0602 62.2725 30.6041 56.9612 29.1889C51.65 27.7737 45.9947 28.5142 41.2268 31.249C38.8666 32.5976 36.7963 34.3997 35.1351 36.5515C33.474 38.7033 32.2546 41.1624 31.5473 43.7872C30.8401 46.412 30.6587 49.1508 31.0138 51.846C31.3689 54.5412 32.2534 57.1395 33.6164 59.4915C36.391 64.237 40.9282 67.6938 46.2398 69.109C51.5513 70.5243 57.2069 69.783 61.9746 67.0472ZM37.8985 57.0062C36.8629 55.2182 36.1911 53.243 35.9219 51.1942C35.6527 49.1455 35.7913 47.0638 36.3299 45.0689C36.8684 43.0739 37.7962 41.2053 39.0599 39.5704C40.3235 37.9355 41.898 36.5668 43.6928 35.5429C47.3248 33.4575 51.6335 32.8914 55.6809 33.9678C59.7282 35.0442 63.1865 37.676 65.3028 41.2902C66.3385 43.0783 67.0103 45.0535 67.2796 47.1023C67.5488 49.151 67.4102 51.2328 66.8717 53.2277C66.3332 55.2226 65.4054 57.0914 64.1418 58.7263C62.8782 60.3612 61.3037 61.73 59.5089 62.7539C55.8769 64.8393 51.5681 65.4054 47.5206 64.3289C43.4732 63.2524 40.0149 60.6205 37.8985 57.0062ZM45.941 89.2139C49.6916 89.7393 53.4971 89.7401 57.2479 89.2162C57.3858 89.2006 57.5254 89.2213 57.6529 89.2761C57.7804 89.3309 57.8915 89.418 57.975 89.5288L63.1217 96.0862C63.9827 97.173 65.2042 97.9159 66.5652 98.1805C67.9263 98.445 69.3371 98.2139 70.5425 97.5288L84.2013 89.6827C85.4093 88.9836 86.3245 87.8721 86.779 86.5525C87.2336 85.2328 87.1968 83.7935 86.6756 82.4987L83.5589 74.8296C83.5038 74.7008 83.4835 74.5599 83.5 74.4209C83.5165 74.2818 83.5693 74.1495 83.653 74.0373C85.9752 71.076 87.8721 67.8045 89.2885 64.3179C89.3439 64.1896 89.4319 64.0781 89.5438 63.9944C89.6557 63.9106 89.7875 63.8576 89.9262 63.8406L98.2198 62.6819C99.5975 62.4841 100.858 61.7976 101.772 60.7476C102.685 59.6976 103.191 58.3542 103.197 56.9623L103.201 41.3107C103.197 39.9177 102.691 38.5728 101.777 37.5219C100.862 36.471 99.6001 35.7844 98.2211 35.5875L89.9358 34.4344C89.7971 34.4174 89.6653 34.3644 89.5534 34.2807C89.4415 34.1969 89.3535 34.0854 89.2981 33.9571C88.589 32.2183 87.7604 30.5306 86.8182 28.9063C85.8765 27.2846 84.8242 25.7294 83.6685 24.2526C83.584 24.1401 83.5306 24.0074 83.5135 23.8678C83.4965 23.7281 83.5165 23.5865 83.5715 23.457L86.6947 15.7806C87.2169 14.4854 87.2541 13.0453 86.7994 11.7249C86.3447 10.4045 85.4287 9.29261 84.2198 8.59368L70.5686 0.757144C69.3632 0.0728519 67.9529 -0.157791 66.5923 0.106876C65.2318 0.371544 64.0107 1.11407 63.1497 2.20033L57.9912 8.77094C57.9071 8.88195 57.7955 8.96908 57.6674 9.02373C57.5392 9.07838 57.3991 9.09865 57.2608 9.08255C53.5101 8.55712 49.7047 8.55635 45.9538 9.08024C45.8159 9.09594 45.6763 9.07535 45.5487 9.02053C45.4212 8.9657 45.3102 8.87853 45.2267 8.76764L40.0797 2.21024C39.2186 1.12353 37.9971 0.380771 36.6361 0.116206C35.2751 -0.148359 33.8643 0.0827317 32.6588 0.767707L19.0001 8.61381C17.792 9.31288 16.8766 10.4243 16.4221 11.7441C15.9676 13.0639 16.0044 14.5033 16.5258 15.7981L19.6424 23.4672C19.6977 23.5959 19.7181 23.7369 19.7016 23.876C19.6851 24.015 19.6322 24.1473 19.5484 24.2595C17.2261 27.2207 15.3291 30.4921 13.9126 33.9786C13.8572 34.1067 13.7693 34.2182 13.6575 34.302C13.5458 34.3857 13.4141 34.4388 13.2755 34.4559L4.98158 35.6145C3.60385 35.8124 2.34316 36.4989 1.4295 37.549C0.515849 38.599 0.0101327 39.9426 0.00462113 41.3345L0 56.9861C0.00456271 58.3791 0.510291 59.724 1.42474 60.7749C2.33918 61.8258 3.60126 62.5124 4.98026 62.7093L13.2656 63.8624C13.4043 63.8795 13.5362 63.9325 13.648 64.0163C13.7599 64.1001 13.8479 64.2117 13.9033 64.34C15.3222 67.8197 17.2169 71.0858 19.5332 74.0449C19.6177 74.1572 19.6711 74.2898 19.6881 74.4294C19.7052 74.5689 19.6852 74.7104 19.6302 74.8398L16.507 82.5159C15.9845 83.811 15.9472 85.2513 16.4018 86.5718C16.8565 87.8923 17.7726 89.0042 18.9816 89.7031L32.6324 97.5393C33.5021 98.0379 34.4875 98.2995 35.49 98.2979C36.3673 98.3001 37.2337 98.1031 38.0239 97.7217C38.8141 97.3404 39.5074 96.7847 40.0517 96.0965L45.2102 89.5259C45.2941 89.4146 45.4058 89.3273 45.534 89.2726C45.6622 89.2179 45.8025 89.1975 45.941 89.2139ZM41.3159 86.4675L36.1574 93.0384C36.0344 93.1936 35.8599 93.2997 35.6656 93.3376C35.4712 93.3754 35.2697 93.3425 35.0975 93.2447L21.4467 85.4085C21.274 85.3087 21.1431 85.1499 21.0781 84.9613C21.0131 84.7727 21.0183 84.567 21.0928 84.3819L24.2164 76.7055C24.5989 75.768 24.7278 74.7463 24.59 73.7433C24.4522 72.7402 24.0526 71.7911 23.4314 70.9915C21.3976 68.3936 19.734 65.5261 18.4882 62.471C18.1041 61.5399 17.4828 60.7257 16.6862 60.1094C15.8896 59.493 14.9455 59.0961 13.9479 58.9581L5.66286 57.8047C5.46587 57.7767 5.28556 57.6786 5.15489 57.5286C5.02421 57.3785 4.95192 57.1864 4.95121 56.9874L4.95583 41.3358C4.95657 41.137 5.02875 40.945 5.15921 40.795C5.28967 40.645 5.46971 40.5468 5.6665 40.5185L13.9604 39.3598C14.9583 39.2213 15.9024 38.8237 16.6988 38.2066C17.4952 37.5896 18.116 36.7746 18.4994 35.843C19.7422 32.7838 21.4065 29.9135 23.444 27.3152C24.0654 26.5161 24.4652 25.5673 24.6031 24.5644C24.741 23.5616 24.6122 22.5401 24.2296 21.6029L21.1126 13.9337C21.0381 13.7487 21.0328 13.543 21.0977 13.3545C21.1625 13.1659 21.2933 13.007 21.4658 12.9071L35.1245 5.06163C35.2489 4.99026 35.3898 4.95281 35.5332 4.95302C35.6585 4.95271 35.7823 4.98086 35.8952 5.03536C36.008 5.08985 36.1071 5.16926 36.1848 5.26761L41.3314 11.8247C41.9508 12.6164 42.7666 13.2322 43.6978 13.611C44.6289 13.9898 45.6429 14.1183 46.6391 13.9839C49.935 13.5235 53.2789 13.5243 56.5745 13.9862C57.571 14.1208 58.5854 13.9926 59.517 13.6142C60.4486 13.2358 61.2651 12.6204 61.8855 11.829L67.044 5.2577C67.1671 5.10256 67.3415 4.99653 67.5359 4.95875C67.7302 4.92098 67.9317 4.95395 68.1039 5.05172L81.7551 12.8883C81.9276 12.9882 82.0583 13.1471 82.1232 13.3356C82.1881 13.5242 82.1828 13.7299 82.1082 13.9149L78.9853 21.591C78.6027 22.5284 78.4738 23.55 78.6115 24.5531C78.7492 25.5562 79.1486 26.5053 79.7696 27.305C81.8037 29.9028 83.4674 32.7703 84.7132 35.8255C85.0973 36.7565 85.7185 37.5707 86.515 38.187C87.3115 38.8034 88.2556 39.2003 89.2532 39.3384L97.5385 40.4917C97.7355 40.5199 97.9157 40.6179 98.0463 40.768C98.1769 40.9181 98.2491 41.1101 98.2498 41.3091L98.2452 56.9607C98.2445 57.1595 98.1722 57.3515 98.0417 57.5016C97.9112 57.6516 97.7311 57.7497 97.5342 57.778L89.2403 58.9366C88.2425 59.0753 87.2984 59.4729 86.5021 60.0899C85.7058 60.707 85.0851 61.5219 84.7017 62.4535C83.4588 65.5128 81.7944 68.3832 79.7567 70.9816C79.1356 71.7808 78.7359 72.7295 78.598 73.7323C78.4602 74.7351 78.589 75.7565 78.9715 76.6936L82.0884 84.3628C82.1629 84.5478 82.1682 84.7535 82.1033 84.9421C82.0383 85.1306 81.9075 85.2895 81.7349 85.3894L68.0765 93.2348C67.9043 93.3326 67.7028 93.3656 67.5083 93.3279C67.3139 93.2901 67.1394 93.184 67.0163 93.0289L61.8697 86.4718C61.2502 85.68 60.4344 85.0642 59.5033 84.6854C58.5722 84.3066 57.5582 84.1781 56.562 84.3126C53.2661 84.7727 49.9222 84.7719 46.6265 84.3103C45.6301 84.1756 44.6157 84.3038 43.684 84.6822C42.7524 85.0606 41.9362 85.676 41.3159 86.4675ZM81.3286 129.602C80.0378 128.48 78.4947 127.687 76.831 127.292C75.1672 126.896 73.4324 126.909 71.7748 127.329C70.1171 127.749 68.5858 128.565 67.3119 129.706C66.0379 130.847 65.0591 132.279 64.459 133.881C63.8589 135.482 63.6555 137.205 63.8661 138.903C64.0767 140.6 64.695 142.221 65.6682 143.627C66.6414 145.033 67.9406 146.183 69.4548 146.978C70.969 147.773 72.6531 148.19 74.3632 148.192C74.6139 148.192 74.8654 148.183 75.1178 148.166C77.2079 148.02 79.2078 147.257 80.8645 145.974C82.5212 144.692 83.7603 142.946 84.4251 140.959C85.0899 138.972 85.1506 136.832 84.5994 134.811C84.0482 132.789 82.91 130.977 81.3286 129.602ZM78.6368 141.299C78.028 142 77.256 142.539 76.3891 142.87C75.5221 143.2 74.587 143.312 73.6666 143.195C72.7462 143.078 71.8689 142.735 71.1124 142.198C70.3558 141.661 69.7435 140.945 69.3295 140.115C68.9155 139.285 68.7127 138.365 68.739 137.437C68.7654 136.51 69.02 135.603 69.4804 134.798C69.9409 133.992 70.5928 133.312 71.3786 132.819C72.1644 132.326 73.0597 132.034 73.9853 131.969C74.1197 131.959 74.2536 131.955 74.387 131.955C75.7453 131.953 77.058 132.445 78.0806 133.339C79.2084 134.322 79.9003 135.712 80.0046 137.204C80.1088 138.697 79.6169 140.169 78.6368 141.299ZM125.803 74.9316C124.194 75.8514 122.782 77.0804 121.65 78.5478C120.517 80.0152 119.686 81.6921 119.204 83.482C118.722 85.2719 118.598 87.1394 118.84 88.9772C119.083 90.815 119.686 92.5867 120.615 94.1905C122.506 97.425 125.598 99.7813 129.218 100.746C132.838 101.711 136.693 101.206 139.942 99.3417C141.552 98.4218 142.963 97.1929 144.096 95.7255C145.228 94.258 146.06 92.5812 146.542 90.7913C147.024 89.0014 147.147 87.1339 146.905 85.2961C146.663 83.4583 146.06 81.6865 145.13 80.0827C143.239 76.8489 140.147 74.4931 136.527 73.5284C132.907 72.5636 129.053 73.0679 125.803 74.9316ZM141.767 89.4806C141.457 90.6469 140.918 91.7397 140.181 92.6955C139.444 93.6514 138.525 94.4511 137.476 95.0481C135.362 96.2622 132.855 96.5921 130.499 95.966C128.143 95.3398 126.13 93.8083 124.898 91.7048C124.295 90.6651 123.905 89.5164 123.749 88.3251C123.592 87.1338 123.673 85.9233 123.986 84.7633C124.3 83.6033 124.839 82.5168 125.574 81.5664C126.309 80.6159 127.225 79.8202 128.269 79.2251C130.383 78.0109 132.891 77.681 135.247 78.3071C137.603 78.9332 139.616 80.4646 140.848 82.568C141.452 83.6017 141.844 84.7452 142.002 85.932C142.16 87.1188 142.08 88.3251 141.767 89.4806ZM164.02 76.9501L159.825 76.3662C159.683 76.3455 159.549 76.2884 159.435 76.2003C159.322 76.1123 159.233 75.9963 159.178 75.8638C158.735 74.8403 158.232 73.8436 157.672 72.8787C157.113 71.9167 156.5 70.988 155.833 70.0973C155.745 69.983 155.688 69.8476 155.668 69.7046C155.648 69.5615 155.666 69.4157 155.719 69.2816L157.293 65.4145C157.815 64.1193 157.853 62.6791 157.398 61.3586C156.943 60.0381 156.027 58.9262 154.818 58.2273L147.035 53.7594C145.829 53.0747 144.419 52.8438 143.058 53.1084C141.698 53.3729 140.477 54.1155 139.616 55.2019L137.001 58.5326C136.917 58.6409 136.808 58.7263 136.683 58.7808C136.557 58.8352 136.42 58.8569 136.284 58.8439C134.034 58.5751 131.759 58.5729 129.508 58.8376C129.367 58.8556 129.224 58.8367 129.092 58.7829C128.96 58.7292 128.845 58.6422 128.757 58.5306L126.149 55.2092C125.288 54.1224 124.067 53.3795 122.706 53.115C121.345 52.8504 119.934 53.0816 118.729 53.7666L110.939 58.2411C109.731 58.9402 108.816 60.0517 108.361 61.3714C107.907 62.6912 107.944 64.1306 108.465 65.4254L110.035 69.2885C110.088 69.4219 110.106 69.5669 110.087 69.7094C110.067 69.8518 110.011 69.9866 109.923 70.1006C108.584 71.8887 107.459 73.8283 106.573 75.8793C106.518 76.0116 106.429 76.1274 106.316 76.2153C106.203 76.3033 106.069 76.3604 105.927 76.381L101.725 76.9686C100.347 77.1665 99.0869 77.8531 98.1734 78.9029C97.2598 79.9528 96.754 81.2961 96.7483 82.6879L96.7457 91.5999C96.7503 92.9929 97.2561 94.3377 98.1705 95.3886C99.0849 96.4394 100.347 97.1261 101.726 97.3231L105.921 97.9067C106.063 97.9274 106.197 97.9845 106.31 98.0726C106.424 98.1606 106.512 98.2766 106.568 98.4091C107.454 100.455 108.577 102.39 109.912 104.176C110.001 104.29 110.057 104.426 110.077 104.569C110.097 104.712 110.08 104.857 110.026 104.992L108.453 108.859C107.93 110.154 107.893 111.594 108.348 112.915C108.802 114.235 109.718 115.347 110.928 116.046L118.711 120.514C119.581 121.012 120.566 121.274 121.568 121.272C122.446 121.275 123.312 121.078 124.102 120.696C124.892 120.315 125.586 119.759 126.13 119.071L128.745 115.741C128.828 115.632 128.937 115.546 129.063 115.492C129.188 115.437 129.325 115.415 129.461 115.429C131.712 115.698 133.986 115.7 136.237 115.436C136.378 115.418 136.522 115.437 136.653 115.49C136.785 115.544 136.901 115.631 136.989 115.742L139.596 119.064C140.457 120.151 141.679 120.894 143.04 121.158C144.401 121.423 145.811 121.192 147.017 120.507L154.807 116.032C156.015 115.333 156.93 114.221 157.384 112.902C157.839 111.582 157.802 110.143 157.28 108.848L155.711 104.985C155.657 104.851 155.639 104.706 155.659 104.564C155.678 104.421 155.735 104.287 155.822 104.173C157.162 102.385 158.286 100.445 159.173 98.3939C159.228 98.2615 159.316 98.1456 159.429 98.0576C159.543 97.9696 159.677 97.9125 159.819 97.8919L164.021 97.3046C165.398 97.1067 166.659 96.4202 167.572 95.3703C168.486 94.3204 168.992 92.9771 168.997 91.5853L169 82.673C168.995 81.28 168.49 79.9351 167.575 78.8843C166.661 77.8334 165.399 77.1471 164.02 76.9501ZM164.046 91.584C164.045 91.7828 163.973 91.9747 163.842 92.1246C163.712 92.2746 163.532 92.3727 163.335 92.401L159.134 92.9879C158.152 93.1299 157.222 93.5206 156.433 94.1231C155.644 94.7256 155.023 95.5198 154.627 96.4302C153.895 98.1243 152.967 99.7264 151.86 101.203C151.264 102.002 150.883 102.941 150.754 103.93C150.625 104.918 150.752 105.924 151.123 106.849L152.694 110.712C152.768 110.897 152.773 111.103 152.709 111.291C152.644 111.48 152.513 111.639 152.34 111.738L144.551 116.213C144.379 116.311 144.177 116.344 143.983 116.306C143.788 116.268 143.614 116.162 143.491 116.007L140.884 112.685C140.269 111.909 139.466 111.302 138.552 110.923C137.637 110.544 136.641 110.404 135.657 110.518C133.794 110.737 131.912 110.735 130.049 110.513C129.07 110.401 128.078 110.541 127.168 110.921C126.258 111.301 125.46 111.907 124.851 112.683L122.236 116.014C122.113 116.169 121.938 116.275 121.744 116.313C121.549 116.35 121.348 116.317 121.176 116.22L113.392 111.752C113.22 111.652 113.089 111.493 113.024 111.304C112.959 111.116 112.964 110.91 113.039 110.725L114.612 106.858C114.984 105.932 115.112 104.926 114.983 103.937C114.854 102.948 114.473 102.009 113.876 101.209C112.772 99.7331 111.844 98.1328 111.111 96.4411C110.715 95.5313 110.093 94.7378 109.304 94.136C108.515 93.5343 107.585 93.1442 106.603 93.0028L102.408 92.4192C102.211 92.391 102.031 92.2929 101.9 92.1428C101.77 91.9926 101.697 91.8005 101.697 91.6015L101.7 82.6889C101.7 82.4902 101.773 82.2984 101.903 82.1485C102.034 81.9987 102.214 81.9006 102.41 81.8722L106.611 81.2853C107.594 81.1434 108.524 80.7527 109.312 80.1502C110.101 79.5477 110.723 78.7535 111.118 77.843C111.85 76.149 112.779 74.5471 113.885 73.0701C114.482 72.2712 114.863 71.3322 114.992 70.3435C115.121 69.3547 114.993 68.3494 114.622 67.4241L113.052 63.561C112.978 63.3761 112.972 63.1705 113.037 62.982C113.102 62.7935 113.233 62.6347 113.405 62.5347L121.195 58.0602C121.319 57.9891 121.46 57.9518 121.603 57.952C121.728 57.9516 121.852 57.9798 121.965 58.0343C122.078 58.0888 122.177 58.1682 122.255 58.2665L124.862 61.588C125.476 62.3643 126.279 62.9708 127.194 63.35C128.108 63.7293 129.105 63.8687 130.088 63.7551C131.951 63.5359 133.834 63.5376 135.697 63.7604C136.676 63.8719 137.668 63.7311 138.578 63.3513C139.488 62.9715 140.285 62.3653 140.895 61.5903L143.51 58.2596C143.633 58.1045 143.807 57.9985 144.002 57.9607C144.196 57.9229 144.397 57.9559 144.569 58.0536L152.353 62.5212C152.526 62.621 152.657 62.7798 152.722 62.9684C152.787 63.157 152.781 63.3627 152.707 63.5478L151.133 67.4156C150.762 68.3411 150.634 69.3468 150.763 70.3359C150.892 71.325 151.273 72.2644 151.869 73.0639C152.974 74.54 153.902 76.1401 154.635 77.8318C155.031 78.7416 155.653 79.5351 156.442 80.1369C157.231 80.7387 158.16 81.1289 159.142 81.2704L163.337 81.854C163.534 81.8821 163.715 81.9802 163.845 82.1303C163.976 82.2805 164.048 82.4726 164.049 82.6717L164.046 91.584ZM102.145 123.041C101.81 122.08 101.14 121.271 100.259 120.762C99.3775 120.253 98.3425 120.078 97.3428 120.269L92.7457 121.164C91.3698 119.629 89.8076 118.271 88.0952 117.122L88.3421 112.444C88.3918 111.428 88.0744 110.427 87.4479 109.625C86.8214 108.823 85.9274 108.273 84.9291 108.075L75.6562 106.272C74.6564 106.082 73.6216 106.257 72.7403 106.766C71.859 107.275 71.1898 108.084 70.8548 109.045L69.3315 113.475C67.3121 113.896 65.3537 114.569 63.5023 115.479L59.5786 112.928C58.723 112.377 57.6979 112.151 56.69 112.293C55.6822 112.434 54.7587 112.933 54.088 113.699L47.8904 120.829C47.2256 121.6 46.8599 122.584 46.86 123.602C46.8601 124.619 47.2261 125.603 47.8911 126.374L50.9628 129.905C50.3196 131.865 49.9255 133.898 49.7897 135.956L45.6155 138.081C44.7103 138.547 44.0025 139.322 43.6211 140.265C43.2397 141.209 43.2102 142.258 43.538 143.222L46.6133 152.154C46.9485 153.116 47.6178 153.924 48.4993 154.433C49.3809 154.942 50.4159 155.117 51.4157 154.926L56.0124 154.031C57.3884 155.567 58.9508 156.925 60.6632 158.073L60.4163 162.751C60.3667 163.767 60.684 164.768 61.3105 165.57C61.9369 166.372 62.8308 166.923 63.829 167.121L73.102 168.923C73.3649 168.974 73.6322 169 73.9001 169C74.7804 168.998 75.6385 168.723 76.3556 168.213C77.0728 167.702 77.6136 166.981 77.9033 166.15L79.4267 161.72C81.446 161.299 83.4045 160.626 85.2559 159.717L89.1796 162.267C90.035 162.819 91.0602 163.044 92.0682 162.903C93.0761 162.761 93.9996 162.262 94.6701 161.496L100.868 154.366C101.533 153.595 101.898 152.611 101.898 151.594C101.898 150.576 101.532 149.592 100.867 148.821L97.7956 145.291C98.4386 143.331 98.8326 141.297 98.9684 139.239L103.143 137.114C104.048 136.649 104.756 135.873 105.137 134.93C105.518 133.986 105.548 132.937 105.22 131.973L102.145 123.041ZM96.3473 135.017C95.6854 135.356 95.1244 135.863 94.7207 136.487C94.317 137.111 94.0848 137.831 94.0476 138.573C93.9565 140.446 93.5978 142.297 92.9824 144.069C92.7397 144.771 92.686 145.524 92.8268 146.253C92.9676 146.983 93.2979 147.662 93.7845 148.223L96.7166 151.594L91.3479 157.771L87.6018 155.336C86.9783 154.932 86.2595 154.7 85.5177 154.662C84.7758 154.624 84.0371 154.782 83.3757 155.12C81.7073 155.976 79.9249 156.589 78.0829 156.94C77.3527 157.08 76.6723 157.41 76.1102 157.897C75.5482 158.384 75.1243 159.01 74.8815 159.713L73.4268 163.942L65.3939 162.381L65.6296 157.915C65.6673 157.173 65.5093 156.435 65.1714 155.774C64.8335 155.113 64.3276 154.552 63.7046 154.149C62.1283 153.129 60.7046 151.892 59.4763 150.472C58.9896 149.911 58.364 149.488 57.6622 149.246C56.9604 149.003 56.2071 148.95 55.478 149.09L51.0892 149.945L48.4252 142.207L52.4105 140.178C53.0726 139.84 53.6338 139.333 54.0376 138.708C54.4413 138.084 54.6735 137.364 54.7106 136.622C54.8016 134.748 55.1603 132.898 55.7757 131.126C56.0185 130.425 56.0722 129.671 55.9314 128.942C55.7906 128.212 55.4603 127.533 54.9736 126.972L52.0415 123.601L57.4103 117.424L61.1567 119.859C61.7801 120.263 62.4988 120.495 63.2406 120.533C63.9824 120.571 64.7211 120.413 65.3824 120.075C67.0511 119.219 68.8337 118.606 70.6759 118.255C71.406 118.115 72.0863 117.785 72.6482 117.298C73.2101 116.811 73.6338 116.185 73.8767 115.482L75.3314 111.253L83.3645 112.815L83.1288 117.28C83.0911 118.022 83.2491 118.76 83.5869 119.421C83.9248 120.082 84.4305 120.643 85.0535 121.047C85.8405 121.556 86.5906 122.12 87.2981 122.735C88.0054 123.35 88.6687 124.014 89.2822 124.723C89.7689 125.284 90.3945 125.707 91.0963 125.949C91.7981 126.192 92.5514 126.245 93.2805 126.105L97.6689 125.25L100.333 132.988L96.3473 135.017Z" fill="#9FB1EB"/>
</svg>
