<svg width="63" height="57" viewBox="0 0 63 57" fill="none" xmlns="http://www.w3.org/2000/svg">
<path d="M61.8016 47.339H59.8397V19.322C59.8397 18.7885 59.4004 18.3559 58.8587 18.3559H14.7147V0.966102C14.7147 0.432572 14.2754 0 13.7337 0H0.980978C0.439233 0 0 0.432572 0 0.966102V4.83051C0 5.36404 0.439233 5.79661 0.980978 5.79661H8.8288V52.1695C8.8288 52.703 9.26804 53.1356 9.80978 53.1356H18.3215C19.4256 55.4183 21.7907 57 24.5245 57C27.2582 57 29.6232 55.4183 30.7274 53.1356H41.8651C42.9692 55.4183 45.3343 57 48.0681 57C50.8018 57 53.1669 55.4183 54.271 53.1356H61.8016C62.3434 53.1356 62.7826 52.703 62.7826 52.1695V48.3051C62.7826 47.7716 62.3434 47.339 61.8016 47.339ZM48.0679 43.4746C47.0152 43.4746 46.0176 43.7097 45.125 44.1284V34.7797H57.8777V47.339H54.2709C53.1668 45.0563 50.8017 43.4746 48.0679 43.4746ZM18.3215 47.339H14.7147V34.7797H27.4674V44.1284C26.5748 43.7097 25.5772 43.4746 24.5245 43.4746C21.7907 43.4746 19.4257 45.0563 18.3215 47.339ZM29.4293 45.5108V34.7797H43.163V45.5108C42.6344 46.0427 42.1936 46.6595 41.865 47.339H30.7273C30.3988 46.6596 29.958 46.0428 29.4293 45.5108ZM57.8777 32.8475H37.2772V20.2881H57.8777V32.8475ZM35.3152 20.2881V32.8475H14.7147V20.2881H35.3152ZM24.5245 55.0678C21.8199 55.0678 19.6196 52.9008 19.6196 50.2373C19.6196 47.5737 21.8199 45.4068 24.5245 45.4068C27.229 45.4068 29.4293 47.5737 29.4293 50.2373C29.4293 52.9008 27.229 55.0678 24.5245 55.0678ZM48.0679 55.0678C45.3634 55.0678 43.163 52.9008 43.163 50.2373C43.163 47.5737 45.3634 45.4068 48.0679 45.4068C50.7725 45.4068 52.9728 47.5737 52.9728 50.2373C52.9728 52.9008 50.7725 55.0678 48.0679 55.0678Z" fill="#29166F"/>
<path d="M23.3938 46.3331C21.8172 46.3331 20.5346 47.6013 20.5346 49.1599C20.5346 50.7185 21.8172 51.9866 23.3938 51.9866C24.9705 51.9866 26.2531 50.7185 26.2531 49.1599C26.2531 47.6013 24.9705 46.3331 23.3938 46.3331ZM46.2679 46.3331C44.6913 46.3331 43.4086 47.6013 43.4086 49.1599C43.4086 50.7185 44.6913 51.9866 46.2679 51.9866C47.8444 51.9866 49.1271 50.7185 49.1271 49.1599C49.1271 47.6013 47.8444 46.3331 46.2679 46.3331ZM21.4876 27.488H25.3C26.8765 27.488 28.1592 26.2198 28.1592 24.6612C28.1592 23.1026 26.8765 21.8345 25.3 21.8345H21.4876C19.9111 21.8345 18.6284 23.1026 18.6284 24.6612C18.6284 26.2198 19.9111 27.488 21.4876 27.488ZM44.3617 27.488H48.174C49.7506 27.488 51.0333 26.2198 51.0333 24.6612C51.0333 23.1026 49.7506 21.8345 48.174 21.8345H44.3617C42.7852 21.8345 41.5024 23.1026 41.5024 24.6612C41.5024 26.2198 42.7852 27.488 44.3617 27.488ZM36.2605 35.9683H33.4012C32.8749 35.9683 32.4481 36.3902 32.4481 36.9106C32.4481 37.4309 32.8749 37.8528 33.4012 37.8528H36.2605C36.7868 37.8528 37.2136 37.4309 37.2136 36.9106C37.2136 36.3902 36.7868 35.9683 36.2605 35.9683ZM21.4876 35.9683H18.6284C18.102 35.9683 17.6753 36.3902 17.6753 36.9106C17.6753 37.4309 18.102 37.8528 18.6284 37.8528H21.4876C22.014 37.8528 22.4407 37.4309 22.4407 36.9106C22.4407 36.3902 22.014 35.9683 21.4876 35.9683ZM51.0333 35.9683H48.174C47.6477 35.9683 47.221 36.3902 47.221 36.9106C47.221 37.4309 47.6477 37.8528 48.174 37.8528H51.0333C51.5596 37.8528 51.9864 37.4309 51.9864 36.9106C51.9864 36.3902 51.5596 35.9683 51.0333 35.9683Z" fill="#29166F"/>
</svg>
