<svg width="26" height="26" viewBox="0 0 26 26" fill="none" xmlns="http://www.w3.org/2000/svg">
<path d="M7.22222 0H4.33333C3.76448 9.23837e-05 3.20126 0.11256 2.676 0.330943C2.15074 0.549326 1.67379 0.869323 1.27256 1.27256C0.869323 1.67379 0.549326 2.15074 0.330943 2.676C0.11256 3.20126 9.23837e-05 3.76448 0 4.33333V7.22222C0 8.41389 0.486778 9.49722 1.27256 10.283C1.67379 10.6862 2.15074 11.0062 2.676 11.2246C3.20126 11.443 3.76448 11.5555 4.33333 11.5556H7.22222C7.79107 11.5555 8.3543 11.443 8.87956 11.2246C9.40482 11.0062 9.88176 10.6862 10.283 10.283C10.6862 9.88176 11.0062 9.40482 11.2246 8.87956C11.443 8.3543 11.5555 7.79107 11.5556 7.22222V4.33333C11.5555 3.76448 11.443 3.20126 11.2246 2.676C11.0062 2.15074 10.6862 1.67379 10.283 1.27256C9.88176 0.869323 9.40482 0.549326 8.87956 0.330943C8.3543 0.11256 7.79107 9.23837e-05 7.22222 0ZM21.6667 0H18.7778C18.2089 9.23837e-05 17.6457 0.11256 17.1204 0.330943C16.5952 0.549326 16.1182 0.869323 15.717 1.27256C15.3138 1.67379 14.9938 2.15074 14.7754 2.676C14.557 3.20126 14.4445 3.76448 14.4444 4.33333V7.22222C14.4444 8.41389 14.9312 9.49722 15.717 10.283C16.1182 10.6862 16.5952 11.0062 17.1204 11.2246C17.6457 11.443 18.2089 11.5555 18.7778 11.5556H21.6667C22.2355 11.5555 22.7987 11.443 23.324 11.2246C23.8493 11.0062 24.3262 10.6862 24.7274 10.283C25.1307 9.88176 25.4507 9.40482 25.6691 8.87956C25.8874 8.3543 25.9999 7.79107 26 7.22222V4.33333C25.9999 3.76448 25.8874 3.20126 25.6691 2.676C25.4507 2.15074 25.1307 1.67379 24.7274 1.27256C24.3262 0.869323 23.8493 0.549326 23.324 0.330943C22.7987 0.11256 22.2355 9.23837e-05 21.6667 0ZM7.22222 14.4444H4.33333C3.76448 14.4445 3.20126 14.557 2.676 14.7754C2.15074 14.9938 1.67379 15.3138 1.27256 15.717C0.869323 16.1182 0.549326 16.5952 0.330943 17.1204C0.11256 17.6457 9.23837e-05 18.2089 0 18.7778V21.6667C0 22.8583 0.486778 23.9417 1.27256 24.7274C1.67379 25.1307 2.15074 25.4507 2.676 25.6691C3.20126 25.8874 3.76448 25.9999 4.33333 26H7.22222C7.79107 25.9999 8.3543 25.8874 8.87956 25.6691C9.40482 25.4507 9.88176 25.1307 10.283 24.7274C10.6862 24.3262 11.0062 23.8493 11.2246 23.324C11.443 22.7987 11.5555 22.2355 11.5556 21.6667V18.7778C11.5555 18.2089 11.443 17.6457 11.2246 17.1204C11.0062 16.5952 10.6862 16.1182 10.283 15.717C9.88176 15.3138 9.40482 14.9938 8.87956 14.7754C8.3543 14.557 7.79107 14.4445 7.22222 14.4444ZM21.6667 14.4444H18.7778C18.2089 14.4445 17.6457 14.557 17.1204 14.7754C16.5952 14.9938 16.1182 15.3138 15.717 15.717C15.3138 16.1182 14.9938 16.5952 14.7754 17.1204C14.557 17.6457 14.4445 18.2089 14.4444 18.7778V21.6667C14.4444 22.8583 14.9312 23.9417 15.717 24.7274C16.1182 25.1307 16.5952 25.4507 17.1204 25.6691C17.6457 25.8874 18.2089 25.9999 18.7778 26H21.6667C22.2355 25.9999 22.7987 25.8874 23.324 25.6691C23.8493 25.4507 24.3262 25.1307 24.7274 24.7274C25.1307 24.3262 25.4507 23.8493 25.6691 23.324C25.8874 22.7987 25.9999 22.2355 26 21.6667V18.7778C25.9999 18.2089 25.8874 17.6457 25.6691 17.1204C25.4507 16.5952 25.1307 16.1182 24.7274 15.717C24.3262 15.3138 23.8493 14.9938 23.324 14.7754C22.7987 14.557 22.2355 14.4445 21.6667 14.4444Z" fill="#29166F"/>
</svg>
