<svg width="64" height="54" viewBox="0 0 64 54" fill="none" xmlns="http://www.w3.org/2000/svg">
<path d="M60.5455 39.2294C60.5455 35.6237 60.6376 35.5448 60.256 35.071C54.5317 27.9124 54.8212 27.9913 53.9659 27.9913H51.1892L48.86 8.2523H50.0181C53.0184 8.2523 50.8734 0.356689 44.7543 0.356689H9.22409C8.17706 0.356689 7.17292 0.772618 6.43257 1.51297C5.69221 2.25333 5.27628 3.25747 5.27628 4.30449C5.27628 5.35152 5.69221 6.35566 6.43257 7.09601C7.17292 7.83637 8.17706 8.2523 9.22409 8.2523V27.9913H6.59222C5.54519 27.9913 4.54106 28.4072 3.8007 29.1476C3.06034 29.888 2.64441 30.8921 2.64441 31.9391V39.2294C1.70124 40.0694 0.973338 41.1234 0.52181 42.3029C0.0702831 43.4824 -0.0916927 44.7531 0.0494797 46.0082C0.190652 47.2632 0.630853 48.4662 1.33313 49.5159C2.03541 50.5657 2.97927 51.4316 4.08548 52.0411C5.19169 52.6506 6.42797 52.9858 7.69054 53.0186C8.95311 53.0514 10.2051 52.7808 11.3415 52.2296C12.4779 51.6784 13.4654 50.8626 14.2213 49.8507C14.9771 48.8389 15.4792 47.6605 15.6853 46.4144H47.5046C47.7108 47.6605 48.2128 48.8389 48.9687 49.8507C49.7245 50.8626 50.7121 51.6784 51.8484 52.2296C52.9848 52.7808 54.2368 53.0514 55.4994 53.0186C56.762 52.9858 57.9983 52.6506 59.1045 52.0411C60.2107 51.4316 61.1545 50.5657 61.8568 49.5159C62.5591 48.4662 62.9993 47.2632 63.1405 46.0082C63.2816 44.7531 63.1197 43.4824 62.6681 42.3029C62.2166 41.1234 61.4887 40.0694 60.5455 39.2294ZM9.22409 2.98856H44.7543C45.5711 2.98813 46.3678 3.24103 47.0348 3.7124C47.7018 4.18376 48.2062 4.8504 48.4784 5.62043H9.22409C8.87508 5.62043 8.54037 5.48178 8.29358 5.235C8.04679 4.98821 7.90815 4.6535 7.90815 4.30449C7.90815 3.95549 8.04679 3.62077 8.29358 3.37399C8.54037 3.1272 8.87508 2.98856 9.22409 2.98856ZM11.856 8.2523H20.9036H37.6252H46.215L48.5442 27.9913H45.4123L40.6486 21.6485L42.9383 19.8062C43.1781 19.5799 43.3241 19.2719 43.3476 18.943C43.3711 18.6142 43.2703 18.2885 43.0652 18.0304C42.86 17.7723 42.5655 17.6007 42.2398 17.5494C41.9142 17.498 41.5811 17.5708 41.3066 17.7533L34.7269 23.0171C34.5148 23.1872 34.3607 23.4189 34.2856 23.6802C34.2105 23.9415 34.2182 24.2196 34.3076 24.4764C34.3971 24.7331 34.5638 24.9559 34.785 25.114C35.0062 25.2721 35.2709 25.3579 35.5428 25.3594C36.1613 25.3594 36.2402 25.1752 38.5957 23.2934L43.4384 29.7415V38.5188H31.595V34.3341C32.2197 34.1112 32.7782 33.7346 33.2189 33.2388C33.6596 32.7431 33.9682 32.1444 34.1164 31.4979C34.2646 30.8514 34.2475 30.1779 34.0667 29.5398C33.8859 28.9016 33.5473 28.3193 33.082 27.8466C31.595 26.3464 30.3843 26.6754 25.3311 26.6754L24.0152 18.1613C23.9964 17.604 23.8597 17.057 23.6142 16.5563C23.3687 16.0557 23.0199 15.6127 22.5908 15.2566C22.1617 14.9005 21.662 14.6393 21.1247 14.4903C20.5874 14.3413 20.0245 14.3078 19.4733 14.392C18.9221 14.4762 18.395 14.6763 17.9267 14.979C17.4584 15.2816 17.0595 15.6801 16.7563 16.1481C16.4531 16.6161 16.2525 17.143 16.1677 17.6942C16.0829 18.2453 16.1159 18.8081 16.2643 19.3456L17.5803 27.9913H11.856V8.2523ZM25.9233 38.5188L24.4494 34.571H28.9631V38.5188H25.9233ZM20.3043 28.1361C18.7515 18.1086 18.8699 18.9245 18.8699 18.7535C18.9159 18.461 19.0593 18.1926 19.2768 17.9916C19.4943 17.7907 19.7731 17.669 20.0684 17.6461C20.3636 17.6233 20.6579 17.7007 20.9036 17.8658C21.1494 18.031 21.3323 18.2741 21.4228 18.5561L22.8966 28.1887C22.9442 28.5025 23.1036 28.7885 23.3454 28.9941C23.5873 29.1996 23.8952 29.3108 24.2126 29.3072C30.7265 29.3072 30.7001 29.1625 31.2265 29.7152C31.404 29.9013 31.523 30.1354 31.5689 30.3884C31.6147 30.6414 31.5855 30.9024 31.4847 31.139C31.3839 31.3756 31.216 31.5774 31.0017 31.7196C30.7874 31.8618 30.5362 31.9381 30.279 31.9391H23.4625C22.8835 30.3732 22.4624 28.7414 20.3043 28.1361ZM5.27628 31.9391C5.27628 31.5901 5.41493 31.2554 5.66171 31.0086C5.9085 30.7618 6.24321 30.6232 6.59222 30.6232H19.2383C20.5543 30.6232 20.2516 30.8864 23.7783 40.2953C24.2389 41.4928 23.7783 41.1507 44.7543 41.1507C45.1033 41.1507 45.438 41.012 45.6848 40.7652C45.9316 40.5184 46.0702 40.1837 46.0702 39.8347V30.6232H53.3342L57.9137 36.3475C57.9137 38.203 58.2558 37.5845 56.5977 37.3081C54.547 36.9637 52.4433 37.4421 50.7432 38.6395C49.0432 39.837 47.8841 41.6567 47.5178 43.7036C47.5178 43.8352 48.9258 43.7825 15.6985 43.7825C15.5072 42.6461 15.0696 41.5654 14.4162 40.6161C13.7628 39.6669 12.9096 38.8722 11.9163 38.2878C10.9231 37.7034 9.81404 37.3435 8.66694 37.2334C7.51984 37.1232 6.36254 37.2655 5.27628 37.6503V31.9391ZM7.90815 50.3622C6.86708 50.3622 5.84939 50.0535 4.98378 49.4751C4.11816 48.8967 3.44349 48.0746 3.04509 47.1128C2.64669 46.151 2.54245 45.0926 2.74556 44.0716C2.94866 43.0505 3.44998 42.1126 4.18613 41.3764C4.92227 40.6403 5.86018 40.139 6.88125 39.9359C7.90231 39.7328 8.96067 39.837 9.9225 40.2354C10.8843 40.6338 11.7064 41.3085 12.2848 42.1741C12.8632 43.0397 13.1719 44.0574 13.1719 45.0985C13.1719 46.4945 12.6173 47.8333 11.6302 48.8205C10.643 49.8076 9.30418 50.3622 7.90815 50.3622ZM55.2818 50.3622C53.8858 50.3622 52.5469 49.8076 51.5598 48.8205C50.5726 47.8333 50.0181 46.4945 50.0181 45.0985C50.0181 43.7024 50.5726 42.3636 51.5598 41.3764C52.5469 40.3893 53.8858 39.8347 55.2818 39.8347C56.4231 39.8199 57.5359 40.1908 58.44 40.8875C59.3238 41.5503 59.9767 42.4745 60.3061 43.529C60.6355 44.5835 60.6248 45.7149 60.2754 46.763C59.9261 47.8111 59.2558 48.7227 58.3596 49.3686C57.4633 50.0146 56.3866 50.3622 55.2818 50.3622Z" fill="#29166F"/>
<path d="M54.3935 41.8367C54.0598 41.5865 53.6715 41.4191 53.2606 41.3484C52.8496 41.2777 52.4277 41.3057 52.0296 41.43C51.6315 41.5544 51.2687 41.7715 50.9711 42.0636C50.6734 42.3556 50.4494 42.7143 50.3175 43.1099C50.1857 43.5055 50.1497 43.9268 50.2126 44.3391C50.2755 44.7513 50.4354 45.1427 50.6793 45.481C50.9231 45.8194 51.2438 46.0949 51.6151 46.2849C51.9863 46.4749 52.3973 46.574 52.8143 46.574C53.3667 46.574 53.9051 46.4002 54.3532 46.0772C54.8013 45.7543 55.1365 45.2985 55.3112 44.7744C55.4858 44.2504 55.4912 43.6847 55.3265 43.1574C55.1618 42.6302 54.8354 42.1681 54.3935 41.8367ZM7.01983 41.8367C6.68621 41.5865 6.29791 41.4191 5.88692 41.3484C5.47593 41.2777 5.05403 41.3057 4.65597 41.43C4.25791 41.5544 3.8951 41.7715 3.59744 42.0636C3.29977 42.3556 3.07577 42.7143 2.9439 43.1099C2.81202 43.5055 2.77605 43.9268 2.83894 44.3391C2.90183 44.7513 3.06179 45.1427 3.30562 45.481C3.54946 45.8194 3.8702 46.0949 4.24142 46.2849C4.61263 46.4749 5.02368 46.574 5.44071 46.574C5.99309 46.574 6.53147 46.4002 6.97959 46.0772C7.4277 45.7543 7.76284 45.2985 7.93752 44.7744C8.1122 44.2504 8.11756 43.6847 7.95286 43.1574C7.78816 42.6302 7.46173 42.1681 7.01983 41.8367ZM12.0204 34.7306H14.6522C15.0013 34.7306 15.336 34.592 15.5828 34.3452C15.8295 34.0984 15.9682 33.7637 15.9682 33.4147C15.9682 33.0657 15.8295 32.731 15.5828 32.4842C15.336 32.2374 15.0013 32.0988 14.6522 32.0988H12.0204C11.6714 32.0988 11.3367 32.2374 11.0899 32.4842C10.8431 32.731 10.7044 33.0657 10.7044 33.4147C10.7044 33.7637 10.8431 34.0984 11.0899 34.3452C11.3367 34.592 11.6714 34.7306 12.0204 34.7306Z" fill="#29166F"/>
<rect x="45.5057" y="7.99548" width="5.59689" height="19.9889" fill="white"/>
<rect x="8.7262" y="7.99548" width="3.19822" height="19.9889" fill="white"/>
<rect x="4.72839" width="47.1738" height="8.79511" fill="white"/>
</svg>
