<svg width="58" height="40" viewBox="0 0 58 40" fill="none" xmlns="http://www.w3.org/2000/svg">
<path d="M45.6916 25C41.6622 25 38.3832 28.3649 38.3832 32.5C38.3832 36.6351 41.6616 40 45.6916 40C49.7216 40 53 36.6357 53 32.5C53 28.3643 49.7211 25 45.6916 25ZM45.6916 36.2179C43.6932 36.2179 42.0681 34.5502 42.0681 32.4994C42.0681 30.4486 43.6932 28.7809 45.6916 28.7809C47.6894 28.7809 49.3145 30.4486 49.3145 32.4994C49.3144 34.5502 47.6894 36.2179 45.6916 36.2179ZM14.3084 25C10.2784 25 7 28.3649 7 32.5C7 36.6351 10.2784 40 14.3084 40C18.3384 40 21.6168 36.6351 21.6168 32.5C21.6168 28.3649 18.3385 25 14.3084 25ZM14.3084 36.2179C12.31 36.2179 10.6849 34.5502 10.6849 32.4994C10.6849 30.4486 12.3106 28.7809 14.3084 28.7809C16.3062 28.7809 17.9319 30.4486 17.9319 32.4994C17.9319 34.5502 16.3069 36.2179 14.3084 36.2179Z" fill="#29166F"/>
<path d="M57.7476 15.9599L52.4511 6.91382C52.2881 6.63566 52.0551 6.40497 51.7753 6.24465C51.4955 6.08434 51.1785 5.99999 50.8559 6H34.966V9.69231H49.7959L54.3048 17.3927V30.3077H51.5333V34H56.1524C57.1729 34 58.0001 33.1736 58 32.1538V16.8922C58.0003 16.5646 57.9132 16.2428 57.7476 15.9599ZM20 30.3077H40.6321V34H20V30.3077Z" fill="#29166F"/>
<path d="M35.1622 0H1.8378C0.822661 0 0 0.8227 0 1.83778V32.1621C0 33.1772 0.822661 34 1.8378 34H8.69868V30.3243H3.67549V3.67567H33.3245V32.1621H37V1.83778C37 0.8227 36.1773 0 35.1622 0Z" fill="#29166F"/>
<path d="M34.9039 15.0952H56V18.8314H34.9039V15.0952ZM27.5447 7H16.8737C15.8575 7 15.0338 7.83626 15.0338 8.86817C15.0338 9.89997 15.8574 10.7363 16.8737 10.7363H27.5447C28.5608 10.7363 29.3845 9.90009 29.3845 8.86817C29.3845 7.83626 28.5609 7 27.5447 7ZM27.5447 13.663H8.83988C7.8237 13.663 7 14.4992 7 15.5311C7 16.563 7.82359 17.3993 8.83988 17.3993H27.5448C28.5609 17.3993 29.3846 16.563 29.3846 15.5311C29.3846 14.4992 28.5609 13.663 27.5447 13.663ZM27.5447 20.2637H22.5158C21.4996 20.2637 20.6759 21.0999 20.6759 22.1318C20.6759 23.1636 21.4995 24 22.5158 24H27.5447C28.5608 24 29.3845 23.1637 29.3845 22.1318C29.3845 21.0999 28.5609 20.2637 27.5447 20.2637Z" fill="#29166F"/>
</svg>
