<svg width="42" height="42" viewBox="0 0 42 42" fill="none" xmlns="http://www.w3.org/2000/svg">
<path d="M21 3.22084e-05C17.5379 -0.00603353 14.1281 0.844752 11.0746 2.47653C8.02112 4.1083 5.41891 6.47034 3.5 9.35203V3.50003H0V15.75H12.25V12.25H5.90625C8.9285 7.03503 14.5197 3.50003 21 3.50003C30.6862 3.50003 38.5 11.3138 38.5 21C38.5 30.6863 30.6862 38.5 21 38.5C11.3138 38.5 3.5 30.6863 3.5 21H0C0 32.5798 9.42025 42 21 42C32.5798 42 42 32.5798 42 21C42 9.42028 32.5798 3.22084e-05 21 3.22084e-05ZM19.25 7.00003V22.75H31.5V19.25H22.75V7.00003H19.25Z" fill="white"/>
</svg>
