<svg width="42" height="42" viewBox="0 0 42 42" fill="none" xmlns="http://www.w3.org/2000/svg">
<path d="M41.4702 22.272L34.2705 29.472C33.9201 29.8224 33.4594 30 32.9986 30C32.5378 30 32.077 29.8248 31.7266 29.472C31.0235 28.7688 31.0235 27.6288 31.7266 26.9256L35.8545 22.7976H13.8018C12.8083 22.7976 12.0019 21.9912 12.0019 20.9976C12.0019 20.004 12.8083 19.1976 13.8018 19.1976H35.8545L31.7266 15.0696C31.0235 14.3664 31.0235 13.2264 31.7266 12.5232C32.4298 11.82 33.5698 11.82 34.2729 12.5232L41.4726 19.7232C42.1758 20.4264 42.1758 21.5664 41.4726 22.2696L41.4702 22.272ZM15.5993 40.2C15.5993 39.2064 14.793 38.4 13.7994 38.4H6.59972C4.94619 38.4 3.59985 37.0536 3.59985 35.4V6.6C3.59985 4.9464 4.94619 3.6 6.59972 3.6H13.7994C14.793 3.6 15.5993 2.7936 15.5993 1.8C15.5993 0.8064 14.793 0 13.7994 0H6.59972C2.95907 0 0 2.9592 0 6.6V35.4C0 39.0408 2.95907 42 6.59972 42H13.7994C14.793 42 15.5993 41.1936 15.5993 40.2Z" fill="white"/>
</svg>
