<svg width="16" height="16" viewBox="0 0 16 16" fill="none" xmlns="http://www.w3.org/2000/svg">
<path d="M15.3872 7.99964C15.3872 3.92541 12.0741 0.612305 7.99988 0.612305C3.92566 0.612305 0.612564 3.92541 0.612564 7.99964C0.612564 12.0738 3.92566 15.387 7.99988 15.387C12.0741 15.387 15.3872 12.0738 15.3872 7.99964Z" fill="#9FB1EB"/>
<path d="M11.988 9.00627H9.65335L8.88656 7.99946L9.65335 6.99264H11.9875C12.3658 6.99269 12.6157 6.5992 12.4547 6.25681C11.7654 4.79125 10.2749 3.85676 8.64129 3.85645C7.10205 3.85642 5.77751 4.69498 5.04504 5.92153L0.683915 5.92153C0.398945 5.92172 0.168052 6.15281 0.168124 6.4378C0.168322 6.72258 0.399136 6.95339 0.683915 6.95358L5.05123 6.95358C5.10938 6.95358 5.16684 6.9587 5.22364 6.96748C5.44867 7.00215 5.66985 6.88528 5.76801 6.67984C6.27247 5.62545 7.36392 4.88877 8.46987 4.88869C9.57583 4.8886 10.442 5.29209 11.034 5.96066H9.3976C9.23652 5.96069 9.08469 6.03589 8.98707 6.16403L7.82737 7.68712C7.68674 7.87185 7.68674 8.12772 7.82737 8.31246L8.98707 9.83554C9.08469 9.96366 9.23652 10.0389 9.3976 10.0389H11.034C10.4419 10.7077 9.57565 11.1109 8.64082 11.111C7.36394 11.1108 6.27248 10.3737 5.76801 9.31927C5.66972 9.11401 5.44857 8.99732 5.22365 9.03207C5.16684 9.04085 5.10939 9.04548 5.05124 9.04548H0.68393C0.39896 9.04568 0.168058 9.27677 0.168132 9.56176C0.168058 9.84674 0.39896 10.0778 0.68393 10.078H5.04552C5.77804 11.3044 7.10219 12.1431 8.6413 12.1431C10.2751 12.143 11.7658 11.208 12.191 10.3039C12.6161 9.39969 12.3663 9.00623 11.988 9.00627Z" fill="white"/>
<path d="M15.9999 7.99978C15.9999 3.58751 12.4124 0 8.00012 0C3.58786 0 -0.00012207 3.58751 -0.00012207 7.99978C-0.00012207 12.412 3.58786 16 8.00012 16C12.4124 16 15.9999 12.412 15.9999 7.99978ZM14.9678 7.99978C14.9678 11.8541 11.8545 14.9679 8.00012 14.9679C4.14575 14.9679 1.03194 11.8541 1.03194 7.99978C1.03194 4.1454 4.14575 1.03205 8.00012 1.03205C11.8545 1.03205 14.9678 4.1454 14.9678 7.99978Z" fill="#29166F"/>
</svg>
