<svg width="45" height="55" viewBox="0 0 45 55" fill="none" xmlns="http://www.w3.org/2000/svg">
<path fill-rule="evenodd" clip-rule="evenodd" d="M33.7264 38H30.3514C28.4872 38 26.9764 39.5948 26.9764 41.5625V43.7914L25.11 51.6741C24.9412 52.383 25.092 53.1347 25.5184 53.7118C25.9447 54.2878 26.5995 54.625 27.2925 54.625C30.6641 54.625 39.0386 54.625 42.4103 54.625C43.1033 54.625 43.758 54.2878 44.1844 53.7118C44.6108 53.1347 44.7615 52.383 44.5939 51.6741L42.7264 43.7914V41.5625C42.7264 39.5948 41.2155 38 39.3514 38H35.9764V1.1875C35.9764 0.532 35.4724 0 34.8514 0C34.2304 0 33.7264 0.532 33.7264 1.1875V38ZM38.2264 52.25H42.4103L40.7228 45.125H28.98L27.2925 52.25H31.4764V48.6875C31.4764 48.032 31.9804 47.5 32.6014 47.5C33.2224 47.5 33.7264 48.032 33.7264 48.6875V52.25H35.9764V48.6875C35.9764 48.032 36.4804 47.5 37.1014 47.5C37.7224 47.5 38.2264 48.032 38.2264 48.6875V52.25ZM40.4764 41.5625V42.75H29.2264V41.5625C29.2264 40.907 29.7304 40.375 30.3514 40.375H39.3514C39.9724 40.375 40.4764 40.907 40.4764 41.5625ZM2.25 36.7519V49.8144C2.25 51.7821 3.76087 53.3769 5.625 53.3769H16.875C18.7391 53.3769 20.25 51.7821 20.25 49.8144V36.7519C20.8463 36.7519 21.4189 36.5014 21.8407 36.0561C22.2626 35.6107 22.5 35.0063 22.5 34.3769V32.0019C22.5 31.3726 22.2626 30.7681 21.8407 30.3228C21.4189 29.8775 20.8463 29.6269 20.25 29.6269H15.75V28.4442C15.75 26.4765 14.2391 24.8817 12.375 24.8817H10.125C8.26087 24.8817 6.75 26.4765 6.75 28.4442V29.6269H2.25C1.65375 29.6269 1.08113 29.8775 0.65925 30.3228C0.237375 30.7681 0 31.3726 0 32.0019V34.3769C0 35.0063 0.237375 35.6107 0.65925 36.0561C1.08113 36.5014 1.65375 36.7519 2.25 36.7519ZM4.5 36.7519H18V49.8144C18 50.4699 17.496 51.0019 16.875 51.0019H5.625C5.004 51.0019 4.5 50.4699 4.5 49.8144V36.7519ZM2.25 32.0019H20.25V34.3769H2.25V32.0019ZM13.5 28.4442V29.488H9V28.4442C9 27.7887 9.504 27.2567 10.125 27.2567H12.375C12.996 27.2567 13.5 27.7887 13.5 28.4442Z" fill="#29166F"/>
<path fill-rule="evenodd" clip-rule="evenodd" d="M7.875 40.3145V47.4395C7.875 48.095 8.379 48.627 9 48.627C9.621 48.627 10.125 48.095 10.125 47.4395V40.3145C10.125 39.659 9.621 39.127 9 39.127C8.379 39.127 7.875 39.659 7.875 40.3145ZM12.375 40.3145V47.4395C12.375 48.095 12.879 48.627 13.5 48.627C14.121 48.627 14.625 48.095 14.625 47.4395V40.3145C14.625 39.659 14.121 39.127 13.5 39.127C12.879 39.127 12.375 39.659 12.375 40.3145Z" fill="#29166F"/>
</svg>
