<svg width="54" height="54" viewBox="0 0 54 54" fill="none" xmlns="http://www.w3.org/2000/svg">
<circle cx="27" cy="27" r="27" fill="#29166F"/>
<path d="M42.5859 11.4432C38.4555 7.31754 32.8552 5 27.016 5C21.1768 5 15.5765 7.31754 11.4461 11.4432C7.31856 15.5719 5 21.1697 5 27.0064C5 32.8431 7.31856 38.4409 11.4461 42.5695C15.5754 46.6874 21.1702 49 27.0032 49C32.8362 49 38.431 46.6874 42.5603 42.5695C46.6839 38.4414 49 32.8463 49 27.0128C49 21.1792 46.6839 15.5841 42.5603 11.456C42.5603 11.456 42.5987 11.456 42.5859 11.4432ZM28.6351 8.39842C32.4392 8.73783 36.0482 10.2335 38.9766 12.6842L31.2973 20.4242C30.5174 19.906 29.6502 19.5332 28.7375 19.324L28.6351 8.39842ZM25.3073 8.39842V19.3751C24.3946 19.5844 23.5274 19.9572 22.7475 20.4754L15.0682 12.7354C17.9622 10.2853 21.5332 8.77271 25.3073 8.39842ZM12.598 15.051L20.3413 22.727C19.8229 23.5065 19.45 24.3734 19.2406 25.2857H8.31031C8.67016 21.5189 10.1653 17.9501 12.598 15.051ZM8.31031 28.7143H19.2918C19.5012 29.6266 19.8741 30.4935 20.3925 31.273L12.6492 38.949C10.2001 36.0549 8.68713 32.4861 8.31031 28.7143ZM25.3073 45.7039C21.5032 45.3645 17.8942 43.8689 14.9658 41.4181L22.6451 33.7421C23.425 34.2603 24.2922 34.6331 25.2049 34.8423L25.3073 45.7039ZM22.402 27.0512C22.402 26.1478 22.67 25.2648 23.172 24.5137C23.6741 23.7627 24.3877 23.1773 25.2226 22.8316C26.0575 22.4859 26.9763 22.3955 27.8626 22.5717C28.749 22.7479 29.5631 23.1829 30.2021 23.8216C30.8412 24.4604 31.2763 25.2742 31.4526 26.1601C31.6289 27.0461 31.5385 27.9644 31.1926 28.799C30.8468 29.6335 30.2611 30.3468 29.5097 30.8487C28.7583 31.3505 27.8749 31.6184 26.9712 31.6184C25.7594 31.6184 24.5972 31.1372 23.7403 30.2807C22.8834 29.4242 22.402 28.2625 22.402 27.0512ZM28.6351 45.7039V34.7272C29.5478 34.5179 30.415 34.1452 31.1949 33.627L38.8742 41.303C35.9881 43.7762 32.4163 45.3114 28.6351 45.7039ZM41.3444 39.0514L33.6651 31.3753C34.1835 30.5958 34.5564 29.729 34.7658 28.8167H45.6961C45.318 32.5905 43.8002 36.1601 41.3444 39.0514ZM34.6506 25.388C34.4412 24.4757 34.0683 23.6088 33.5499 22.8293L41.2292 15.1533C43.681 18.0805 45.1773 21.6879 45.5169 25.4904L34.6506 25.388Z" fill="white"/>
<path d="M27 0C21.6599 0 16.4397 1.58352 11.9996 4.55032C7.55949 7.51712 4.09883 11.7339 2.05526 16.6675C0.0116989 21.6011 -0.522991 27.0299 0.518809 32.2674C1.56061 37.5049 4.13211 42.3159 7.90813 46.0919C11.6841 49.8679 16.4951 52.4394 21.7326 53.4812C26.9701 54.523 32.3989 53.9883 37.3325 51.9447C42.2661 49.9012 46.4829 46.4405 49.4497 42.0004C52.4165 37.5603 54 32.3401 54 27C54 19.8392 51.1554 12.9716 46.0919 7.90812C41.0284 2.84463 34.1609 0 27 0ZM27 51.597C22.1287 51.597 17.3668 50.1521 13.3168 47.4452C9.26687 44.7383 6.11077 40.891 4.24783 36.3899C2.38489 31.8889 1.89884 26.9365 2.85115 22.1592C3.80346 17.3818 6.15135 12.9943 9.59778 9.55165C13.0442 6.109 17.4343 3.76593 22.2127 2.81886C26.991 1.87178 31.943 2.36328 36.4419 4.23115C40.9409 6.09902 44.7848 9.25934 47.4872 13.3123C50.1897 17.3652 51.6293 22.1287 51.624 27C51.6169 33.5285 49.0203 39.7875 44.4039 44.4039C39.7876 49.0202 33.5285 51.6168 27 51.624V51.597Z" fill="#29166F"/>
</svg>
