<svg width="54" height="54" viewBox="0 0 54 54" fill="none" xmlns="http://www.w3.org/2000/svg">
<g clip-path="url(#clip0_134_35)">
<path d="M51.7852 38.0742H51.2578V17.9903C52.7522 17.7385 53.8945 16.436 53.8945 14.8711C53.8945 13.1264 52.4751 11.707 50.7305 11.707H49.6758V9.59766C49.6758 7.85299 48.2564 6.43359 46.5117 6.43359H44.4023C42.6577 6.43359 41.2383 7.85299 41.2383 9.59766V11.707H39.1289V3.26953C39.1289 1.52487 37.7095 0.105469 35.9648 0.105469H18.0352C16.2905 0.105469 14.8711 1.52487 14.8711 3.26953V11.707H12.7617V9.59766C12.7617 7.85299 11.3423 6.43359 9.59766 6.43359H7.48828C5.74362 6.43359 4.32422 7.85299 4.32422 9.59766V11.707H3.26953C1.52487 11.707 0.105469 13.1264 0.105469 14.8711C0.105469 16.436 1.2478 17.7385 2.74219 17.9903V38.0742H2.21484C1.05173 38.0742 0.105469 39.0205 0.105469 40.1836V50.7305C0.105469 52.4751 1.52487 53.8945 3.26953 53.8945H50.7305C52.4751 53.8945 53.8945 52.4751 53.8945 50.7305V40.1836C53.8945 39.0205 52.9483 38.0742 51.7852 38.0742ZM16.9805 3.26953C16.9805 2.68798 17.4536 2.21484 18.0352 2.21484H35.9648C36.5464 2.21484 37.0195 2.68798 37.0195 3.26953V11.707H16.9805V3.26953ZM2.21484 14.8711C2.21484 14.2895 2.68798 13.8164 3.26953 13.8164H50.7305C51.312 13.8164 51.7852 14.2895 51.7852 14.8711C51.7852 15.4526 51.312 15.9258 50.7305 15.9258H3.26953C2.68798 15.9258 2.21484 15.4526 2.21484 14.8711ZM4.85156 18.0352H49.1484V38.0742H48.6211C47.458 38.0742 46.5117 39.0205 46.5117 40.1836V46.5117H7.48828V40.1836C7.48828 39.0205 6.54202 38.0742 5.37891 38.0742H4.85156V18.0352ZM51.7852 50.7305C51.7852 51.312 51.312 51.7852 50.7305 51.7852H3.26953C2.68798 51.7852 2.21484 51.312 2.21484 50.7305V40.1836H5.37891V47.5664C5.37891 48.1489 5.85109 48.6211 6.43359 48.6211H27H47.5664C48.1489 48.6211 48.6211 48.1489 48.6211 47.5664V40.1836H51.7852V50.7305Z" fill="#29166F"/>
<path d="M8.01562 24.3633H9.07031V25.418C9.07031 26.0005 9.5425 26.4727 10.125 26.4727C10.7075 26.4727 11.1797 26.0005 11.1797 25.418V24.3633H12.2344C12.8169 24.3633 13.2891 23.8911 13.2891 23.3086C13.2891 22.7261 12.8169 22.2539 12.2344 22.2539H11.1797V21.1992C11.1797 20.6167 10.7075 20.1445 10.125 20.1445C9.5425 20.1445 9.07031 20.6167 9.07031 21.1992V22.2539H8.01562C7.43312 22.2539 6.96094 22.7261 6.96094 23.3086C6.96094 23.8911 7.43312 24.3633 8.01562 24.3633ZM41.7656 24.3633H45.9844C46.5669 24.3633 47.0391 23.8911 47.0391 23.3086C47.0391 22.7261 46.5669 22.2539 45.9844 22.2539H41.7656C41.1831 22.2539 40.7109 22.7261 40.7109 23.3086C40.7109 23.8911 41.1831 24.3633 41.7656 24.3633ZM20.1445 34.3828H24.0671L22.2853 41.5099C22.1661 41.987 22.3925 42.4833 22.831 42.7061C23.269 42.9283 23.8033 42.8195 24.1188 42.4408L34.6657 29.7846C35.2376 29.0982 34.7472 28.0547 33.8555 28.0547H28.6632L30.6159 23.173C30.893 22.4803 30.3816 21.7266 29.6367 21.7266H24.3633C23.932 21.7266 23.5442 21.9891 23.384 22.3895L19.1653 32.9364C18.8883 33.629 19.3995 34.3828 20.1445 34.3828Z" fill="#29166F"/>
</g>
<defs>
<clipPath id="clip0_134_35">
<rect width="54" height="54" fill="white"/>
</clipPath>
</defs>
</svg>
