<svg width="54" height="54" viewBox="0 0 54 54" fill="none" xmlns="http://www.w3.org/2000/svg">
<path d="M52.0225 17.3916H46.2422C45.7312 17.3916 45.2411 17.5946 44.8798 17.9559C44.5185 18.3173 44.3155 18.8074 44.3155 19.3184C44.3155 19.8294 44.5185 20.3194 44.8798 20.6808C45.2411 21.0421 45.7312 21.2451 46.2422 21.2451V25.2701C46.2345 30.9562 44.3002 36.4719 40.7548 40.9173L38.9591 43.162C38.7915 43.3583 38.665 43.5862 38.5872 43.8323C38.5094 44.0784 38.4818 44.3376 38.5061 44.5945C38.5304 44.8515 38.6061 45.1009 38.7286 45.3281C38.8512 45.5552 39.0181 45.7554 39.2195 45.9168C39.4209 46.0782 39.6527 46.1974 39.9011 46.2675C40.1495 46.3376 40.4094 46.3571 40.6655 46.3248C40.9215 46.2925 41.1685 46.2091 41.3917 46.0795C41.6149 45.9499 41.8098 45.7768 41.9648 45.5705L43.7644 43.3239C47.8558 38.1951 50.0877 31.8309 50.0957 25.2701V21.2451H52.0225C52.5335 21.2451 53.0236 21.0421 53.3849 20.6808C53.7463 20.3194 53.9493 19.8294 53.9493 19.3184C53.9493 18.8074 53.7463 18.3173 53.3849 17.9559C53.0236 17.5946 52.5335 17.3916 52.0225 17.3916Z" fill="#29166F"/>
<path d="M21.1943 27.0254C22.3376 27.0254 23.4551 26.6864 24.4057 26.0512C25.3563 25.4161 26.0971 24.5133 26.5346 23.4571C26.9721 22.4009 27.0866 21.2387 26.8636 20.1174C26.6405 18.9962 26.09 17.9662 25.2816 17.1579C24.4732 16.3495 23.4433 15.7989 22.322 15.5759C21.2008 15.3529 20.0385 15.4673 18.9823 15.9048C17.9261 16.3423 17.0234 17.0832 16.3882 18.0338C15.7531 18.9843 15.4141 20.1019 15.4141 21.2451C15.4141 22.7781 16.0231 24.2484 17.1071 25.3324C18.1911 26.4164 19.6613 27.0254 21.1943 27.0254ZM21.1943 19.3184C21.5754 19.3184 21.9479 19.4314 22.2648 19.6431C22.5816 19.8548 22.8286 20.1557 22.9744 20.5078C23.1203 20.8599 23.1584 21.2473 23.0841 21.621C23.0097 21.9948 22.8262 22.3381 22.5568 22.6075C22.2873 22.877 21.944 23.0605 21.5702 23.1349C21.1965 23.2092 20.8091 23.171 20.457 23.0252C20.1049 22.8794 19.804 22.6324 19.5923 22.3156C19.3806 21.9987 19.2676 21.6262 19.2676 21.2451C19.2676 20.7341 19.4706 20.244 19.8319 19.8827C20.1933 19.5214 20.6833 19.3184 21.1943 19.3184Z" fill="#29166F"/>
<path d="M38.2732 35.9154L36.8455 35.4858C39.6168 32.4507 41.446 28.6754 42.1102 24.6195C42.7744 20.5635 42.245 16.4019 40.5864 12.6415C38.9278 8.88102 36.2117 5.68391 32.7687 3.43945C29.3257 1.19498 25.3044 0 21.1944 0C17.0844 0 13.0631 1.19498 9.62013 3.43945C6.17713 5.68391 3.46099 8.88102 1.80243 12.6415C0.143875 16.4019 -0.38554 20.5635 0.278651 24.6195C0.942842 28.6754 2.77198 32.4507 5.54335 35.4858L4.11562 35.9154C2.92287 36.2677 1.87672 36.9976 1.13453 37.9956C0.392331 38.9935 -0.00578253 40.2054 6.34742e-05 41.4491V48.2197C6.34742e-05 49.7527 0.609056 51.223 1.69307 52.307C2.77708 53.391 4.24732 54 5.78034 54H36.6085C38.1415 54 39.6118 53.391 40.6958 52.307C41.7798 51.223 42.3888 49.7527 42.3888 48.2197V41.4491C42.3946 40.2054 41.9965 38.9935 41.2543 37.9956C40.5121 36.9976 39.466 36.2677 38.2732 35.9154ZM21.1944 3.90426C24.6241 3.90426 27.9768 4.92128 30.8285 6.82672C33.6801 8.73215 35.9028 11.4404 37.2153 14.609C38.5277 17.7777 38.8712 21.2643 38.202 24.6281C37.533 27.9919 35.8814 31.0818 33.4562 33.5069C31.0311 35.9321 27.9412 37.5836 24.5774 38.2527C21.2137 38.9218 17.727 38.5784 14.5584 37.2659C11.3897 35.9534 8.68147 33.7308 6.77604 30.8791C4.8706 28.0275 3.85358 24.6748 3.85358 21.2451C3.85868 16.6476 5.68729 12.2398 8.93823 8.98891C12.1892 5.73797 16.5969 3.90936 21.1944 3.90426ZM38.5352 48.2197C38.5352 48.7307 38.3323 49.2208 37.9709 49.5821C37.6096 49.9435 37.1195 50.1465 36.6085 50.1465H5.78034C5.26933 50.1465 4.77925 49.9435 4.41792 49.5821C4.05658 49.2208 3.85358 48.7307 3.85358 48.2197V41.4491C3.85198 41.0347 3.98483 40.631 4.23219 40.2985C4.47954 39.966 4.82806 39.7227 5.22543 39.6052L8.92096 38.4915C12.4985 41.0587 16.791 42.4395 21.1944 42.4395C25.5978 42.4395 29.8903 41.0587 33.4679 38.4915L37.1634 39.6052C37.5608 39.7227 37.9093 39.966 38.1566 40.2985C38.404 40.631 38.5368 41.0347 38.5352 41.4491V48.2197Z" fill="#29166F"/>
</svg>
