<svg width="60" height="60" viewBox="0 0 60 60" fill="none" xmlns="http://www.w3.org/2000/svg">
<path d="M59.9016 36.9897C59.414 33.0267 57.1709 29.5754 53.7473 27.5206L47.8103 23.9574C46.4982 23.1699 45.3885 22.0602 44.6009 20.748L41.0377 14.8111C38.983 11.3876 35.5316 9.14435 31.5686 8.65674C27.6055 8.16924 23.7135 9.50881 20.8901 12.3322C19.9952 13.2272 19.2499 14.2297 18.6641 15.3077L15.3989 20.748C14.6114 22.0602 13.5016 23.1698 12.1894 23.9574L6.25261 27.5206C2.82909 29.5754 0.58577 33.0268 0.098387 36.9897C-0.389113 40.9527 0.950457 44.8448 3.77386 47.6681C6.21557 50.1099 9.45686 51.442 12.8519 51.442C13.3824 51.442 13.9167 51.4094 14.4522 51.3436C18.4153 50.856 21.8666 48.6129 23.9213 45.1892L27.4845 39.2523C28.1291 38.1785 28.9897 37.2405 30 36.5034C31.0103 37.2405 31.8708 38.1784 32.5154 39.2523L36.0786 45.1892C38.1334 48.6128 41.5846 50.8558 45.5476 51.3436C46.0833 51.4095 46.6171 51.442 47.148 51.442C50.5428 51.442 53.7844 50.1097 56.2262 47.6681C59.0496 44.8447 60.389 40.9526 59.9016 36.9897ZM24.4702 37.4431L20.907 43.3801C19.4131 45.869 16.904 47.4998 14.023 47.8543C11.1421 48.2093 8.31229 47.2349 6.25952 45.1823C4.20698 43.1298 3.23315 40.3002 3.58753 37.4191C3.9419 34.5381 5.5728 32.0288 8.06186 30.5349L13.9987 26.9717C15.2892 26.1972 16.436 25.1954 17.3816 24.0281C18.1007 27.5608 20.2421 30.603 23.3691 32.4798L26.834 34.5593C25.9132 35.3999 25.1131 36.3721 24.4702 37.4431ZM53.7403 45.1823C51.6876 47.2349 48.8578 48.2086 45.9769 47.8544C43.0959 47.4999 40.5867 45.8692 39.0929 43.3801L35.5297 37.4431C34.4464 35.6383 32.9199 34.1117 31.115 33.0286L25.1782 29.4654C22.6892 27.9716 21.0583 25.4624 20.7038 22.5812C20.4631 20.6251 20.8355 18.693 21.7414 17.0114L21.9764 16.62L21.9679 16.6149C22.3575 15.9698 22.8278 15.3658 23.3759 14.8179C25.4285 12.7653 28.2581 11.7912 31.1392 12.1458C34.0203 12.5003 36.5295 14.131 38.0234 16.6201L41.5866 22.5569C42.6699 24.3617 44.1964 25.8883 46.0012 26.9716L51.9382 30.5348C54.4271 32.0286 56.0579 34.538 56.4124 37.419C56.7669 40.3002 55.7929 43.1298 53.7403 45.1823Z" fill="#29166F"/>
<path d="M33.8667 17.5754C31.7346 15.4434 28.2656 15.4432 26.1335 17.5754C24.0015 19.7073 24.0015 23.1765 26.1335 25.3087C27.1995 26.3747 28.5997 26.9076 30.0001 26.9076C31.4005 26.9076 32.8006 26.3746 33.8667 25.3087C35.9986 23.1766 35.9986 19.7075 33.8667 17.5754ZM31.3809 22.8227C30.6194 23.5841 29.3808 23.584 28.6194 22.8227C27.858 22.0612 27.8579 20.8225 28.6194 20.0611C29.0001 19.6804 29.5002 19.4901 30.0002 19.4901C30.5002 19.4901 31.0004 19.6805 31.381 20.0611C32.1422 20.8225 32.142 22.0612 31.3809 22.8227ZM50.983 34.6916C48.851 32.5597 45.3819 32.5597 43.2498 34.6916C41.1178 36.8236 41.1178 40.2927 43.2498 42.425C44.3158 43.491 45.716 44.0239 47.1164 44.0239C48.5168 44.0239 49.9169 43.4909 50.983 42.425C53.115 40.293 53.115 36.8239 50.983 34.6916ZM48.4972 39.9391C47.7358 40.7006 46.497 40.7006 45.7357 39.9391C44.9743 39.1776 44.9742 37.9389 45.7357 37.1775C46.1164 36.7968 46.6165 36.6065 47.1165 36.6065C47.6165 36.6065 48.1167 36.7969 48.4973 37.1775C49.2586 37.9388 49.2586 39.1777 48.4972 39.9391ZM16.7503 34.6914C14.6182 32.5597 11.1491 32.5597 9.01696 34.6916C6.88497 36.8236 6.88497 40.2927 9.01696 42.4248C10.083 43.4909 11.4832 44.0238 12.8836 44.0238C14.2838 44.0238 15.6841 43.4907 16.7503 42.4246C18.8823 40.2927 18.8823 36.8236 16.7503 34.6914ZM14.2644 39.9391C13.503 40.7004 12.2642 40.7004 11.5029 39.9391C10.7415 39.1776 10.7415 37.9389 11.5029 37.1775C12.2642 36.4161 13.5029 36.4162 14.2644 37.1775C15.0259 37.9388 15.0258 39.1777 14.2644 39.9391Z" fill="#29166F"/>
</svg>
