<svg width="40" height="54" viewBox="0 0 40 54" fill="none" xmlns="http://www.w3.org/2000/svg">
<path d="M24 25H16V33H24V25Z" fill="#29166F"/>
<path d="M20 25H16V33H20V25Z" fill="#29166F"/>
<path d="M20 28C25.5228 28 30 22.8513 30 16.5C30 10.1487 25.5228 5 20 5C14.4772 5 10 10.1487 10 16.5C10 22.8513 14.4772 28 20 28Z" fill="#9FB1EB"/>
<path d="M20 5V28C25.4545 28 30 22.8782 30 16.5C30 10.1218 25.4545 5 20 5Z" fill="#9FB1EB"/>
<path d="M31.0036 16.6325C31.2 14.911 30.7924 13.4507 30.093 13.3709C29.3937 13.2911 28.6675 14.6219 28.471 16.3434C28.2745 18.0649 28.6822 19.5252 29.3815 19.605C30.0809 19.6848 30.8071 18.354 31.0036 16.6325Z" fill="#29166F"/>
<path d="M22 5.59281C22 5.59281 27.8678 3.1719 29.23 8.1146C30.5922 13.0573 29.7539 14.1669 29.6491 18H29.0204C29.0204 17.8991 26.9248 8.92157 22 5.59281Z" fill="#29166F"/>
<path d="M10.9307 16.3813C10.7343 14.6598 10.0081 13.329 9.3087 13.4088C8.60935 13.4886 8.20169 14.9488 8.39816 16.6703C8.59463 18.3918 9.32084 19.7226 10.0202 19.6428C10.7195 19.563 11.1272 18.1028 10.9307 16.3813Z" fill="#29166F"/>
<path d="M17 5.59281C17 5.59281 11.1322 3.1719 9.77001 8.1146C8.40784 13.0573 9.2461 14.1669 9.35088 18H9.97957C10.0844 17.8991 12.0752 8.92157 17 5.59281Z" fill="#29166F"/>
<path d="M20 17C25.5229 17 30 14.5376 30 11.5C30 8.46243 25.5229 6 20 6C14.4772 6 10 8.46243 10 11.5C10 14.5376 14.4772 17 20 17Z" fill="#29166F"/>
<path d="M20.1 6H20V17H20.1C25.6 17 30 14.5673 30 11.5C30 8.53846 25.6 6 20.1 6Z" fill="#29166F"/>
<path d="M20.3527 0C12.7927 0 7 2.48696 7 5.45217C7 6.7913 8.27636 8.13043 10.0436 7.84348C10.3382 7.74783 10.5345 8.8 10.8291 8.89565C13.48 9.27826 16.8182 11 20.6473 11C24.3782 10.9043 27.6182 9.27826 30.1709 8.9913C30.5636 8.9913 30.6618 7.84348 30.9564 7.93913C32.7236 8.22609 34 6.88696 34 5.54783C34 2.48696 27.9127 0 20.3527 0Z" fill="#29166F"/>
<path d="M20 0V11C20.1007 11 20.2014 11 20.3022 11C24.1295 10.9043 27.4532 9.27826 30.0719 8.9913C30.4748 8.9913 30.5755 7.84348 30.8777 7.93913C32.6906 8.22609 34 6.88696 34 5.54783C34 2.48696 27.7554 0.0956522 20 0Z" fill="#29166F"/>
<path d="M10 8V10.6514C10 10.8343 10.1878 11.1086 10.3756 11.1086C16.7606 12.2971 23.2394 12.2971 29.6244 11.1086C29.8122 11.1086 30 10.8343 30 10.6514V8C23.5211 9.28 16.6667 9.28 10 8Z" fill="#9FB1EB"/>
<path d="M20 9.02326V12C23.5648 12 27.1296 11.7209 30.5926 11.0698C30.7963 11.0698 31 10.7907 31 10.6047V8C27.3333 8.65116 23.6667 9.02326 20 9.02326Z" fill="#9FB1EB"/>
<path d="M23.5857 30L19.9643 33.15L16.3429 30.0955C16.3429 30.1909 14.8571 30.7636 13 31.3364V51H26V31.05C24.7 30.4773 23.5857 30.0955 23.5857 30Z" fill="white"/>
<path d="M23.5077 30L20 33.15V51H26V31.05C24.6154 30.4773 23.5077 30.0955 23.5077 30Z" fill="white"/>
<path d="M40 54H0C0.19656 48.7317 0.589679 41.4146 1.08108 39.0732C1.37592 37.6098 2.16216 36.3415 3.14496 35.2683C4.71744 33.5122 6.68305 32.439 8.84521 31.8537C10.0246 31.561 11.4988 31.0732 12.7764 30.6829C13.5627 30.3902 14.2506 30.1951 14.8403 30C15.1351 31.9512 16.3145 40.5366 20.0491 49.6098C23.7838 40.439 25.0614 31.8537 25.258 30C25.8477 30.1951 26.5356 30.4878 27.3219 30.6829C28.5995 31.0732 29.9754 31.561 31.2531 31.8537C33.4152 32.439 35.3808 33.5122 36.9533 35.2683C37.9361 36.3415 38.7224 37.6098 39.0172 39.0732C39.4103 41.4146 39.8034 48.6341 40 54Z" fill="#29166F"/>
<path d="M20 54H40C39.8039 48.7317 39.4118 41.4146 38.9216 39.0732C38.6275 37.6098 37.8431 36.3415 36.8627 35.2683C35.2941 33.5122 33.3333 32.439 31.1765 31.8537C30 31.561 28.5294 31.0732 27.2549 30.6829C26.4706 30.3902 25.7843 30.1951 25.1961 30C25 31.8537 23.7255 40.5366 20 49.6098C20 49.5122 20 54 20 54Z" fill="#29166F"/>
<path d="M21.4706 32.843H18.5294L17.0588 34.9018L18.5294 36.9607H21.4706L22.9412 34.9018L21.4706 32.843Z" fill="#29166F"/>
<path d="M22.9412 34.9018L21.4706 32.843H20V36.9607H21.4706L22.9412 34.9018Z" fill="#29166F"/>
<path d="M22.0588 47.0587L20 49.9019V36.9607H21.4706L22.0588 46.6666V47.0587Z" fill="#29166F"/>
<path d="M20 49.9019L17.9412 46.9607V46.6666L18.5294 36.9607H20V49.9019Z" fill="#29166F"/>
<path d="M23.7985 28L20 32.3902L22.9988 36C22.9988 36 26.0976 30.0488 25.9976 29.9512C25.8977 29.9512 23.7985 28 23.7985 28Z" fill="#9FB1EB"/>
<path d="M16.2015 28L20 32.3902L17.0012 36C17.0012 36 13.9024 30.0488 14.0024 29.9512C14.2023 29.9512 16.2015 28 16.2015 28Z" fill="#9FB1EB"/>
<path d="M25.7843 38.4314L26.6667 41.4706L20 49.902C23.7255 40.6863 25 32.0589 25.1961 30.1961C25.1961 30 25.2941 29.804 25.2941 29.804L27.3529 30.8824L28.1373 36.7647L25.7843 38.4314Z" fill="#9FB1EB"/>
<path d="M13.3332 41.4705L14.2156 38.4313L11.9607 36.8626L12.843 30.9803L14.9019 29.9019C14.9019 29.9019 14.9019 30.0979 14.9999 30.294C15.294 32.2548 16.4705 40.8823 20.196 49.9999L13.3332 41.4705Z" fill="#9FB1EB"/>
<path d="M30 54L33 44L32.25 54H30Z" fill="white"/>
<path d="M9 54L6 44L6.75 54H9Z" fill="white"/>
<path d="M16.9608 4.50977H15V6.47055H16.9608V4.50977Z" fill="#9FB1EB"/>
<path d="M18.9215 2.54907H16.9607V4.50986H18.9215V2.54907Z" fill="#9FB1EB"/>
<path d="M20.9803 4.50977H19.0195V6.47055H20.9803V4.50977Z" fill="#9FB1EB"/>
<path d="M22.9413 2.54907H20.9805V4.50986H22.9413V2.54907Z" fill="#9FB1EB"/>
<path d="M24.9019 4.50977H22.9412V6.47055H24.9019V4.50977Z" fill="#9FB1EB"/>
</svg>
