<svg width="54" height="54" viewBox="0 0 54 54" fill="none" xmlns="http://www.w3.org/2000/svg">
<path d="M28.1162 2.10278C28.8103 2.1141 29.1165 2.17414 29.2881 2.25415C29.3929 2.30307 29.5196 2.38949 29.6973 2.75903C29.8937 3.16758 30.0857 3.78127 30.3691 4.77466H30.3701C30.6551 5.77285 31.1623 6.69351 31.8535 7.46802C32.5448 8.24252 33.4018 8.85106 34.3613 9.24731C35.321 9.64358 36.3581 9.81727 37.3945 9.7561C38.4298 9.695 39.4372 9.4001 40.3428 8.89478L40.3438 8.89575C41.2423 8.39753 41.8033 8.09863 42.2275 7.94458C42.6103 7.80564 42.7506 7.83419 42.8496 7.86938C43.0205 7.93013 43.2774 8.099 43.7832 8.58618C44.2928 9.07701 44.8673 9.69562 45.7783 10.6067C46.0012 10.8296 46.0898 11.0006 46.1279 11.1204C46.1649 11.2362 46.1739 11.3651 46.1406 11.5393C46.0597 11.9625 45.7959 12.4296 45.374 13.2122C44.9883 13.9277 44.5243 14.8282 44.3193 15.8997C44.1099 16.9947 44.1783 18.2221 44.7578 19.6077V19.6086C45.1444 20.5766 45.7494 21.4421 46.5254 22.1379C47.2993 22.8319 48.2226 23.3377 49.2236 23.6174V23.6184C50.1932 23.8971 50.7915 24.0716 51.2041 24.2561C51.5765 24.4226 51.6578 24.5379 51.7041 24.6292C51.7832 24.7853 51.8544 25.0826 51.877 25.7883C51.8992 26.4855 51.875 27.373 51.875 28.676C51.875 28.9876 51.8185 29.1673 51.7627 29.2747C51.7088 29.3783 51.6254 29.4722 51.4805 29.5696C51.1261 29.8075 50.6141 29.9476 49.7617 30.2014C48.9828 30.4333 48.0188 30.7415 47.1143 31.3586C46.2448 31.9518 45.4647 32.8038 44.8945 34.0676L44.7832 34.3264C44.3772 35.282 44.1945 36.3178 44.249 37.3547C44.297 38.2663 44.5275 39.1579 44.9248 39.9768L45.1055 40.3235C45.5973 41.2152 45.8955 41.7729 46.0518 42.1985C46.1934 42.5845 46.167 42.7294 46.1318 42.8323C46.0731 43.0038 45.9078 43.2636 45.4248 43.7717C44.9436 44.278 44.3131 44.8688 43.4043 45.7776C43.1812 46.0007 43.0098 46.0907 42.8896 46.1292C42.7734 46.1662 42.6438 46.1749 42.4697 46.1418C42.047 46.0615 41.5798 45.799 40.7979 45.3782C40.0826 44.9932 39.183 44.5299 38.1123 44.3245C37.0819 44.1268 35.9338 44.1732 34.6465 44.6604L34.4062 44.7561C32.9057 45.3488 31.6705 46.4637 30.9268 47.8948C30.6098 48.4742 30.4153 49.0827 30.2646 49.6096C30.103 50.175 30.0019 50.596 29.8535 50.9856C29.7119 51.3574 29.5758 51.5564 29.4385 51.6702C29.3233 51.7655 29.1193 51.8752 28.6758 51.8752C27.391 51.8753 26.537 51.9046 25.8359 51.8889C25.1359 51.8733 24.8359 51.8086 24.6729 51.7297C24.5762 51.683 24.455 51.6006 24.2812 51.2278C24.0894 50.816 23.9035 50.2075 23.6182 49.2219H23.6172C23.3297 48.2236 22.819 47.3038 22.123 46.5325C21.4293 45.7637 20.5702 45.1629 19.6104 44.7747H19.6113C19.6092 44.7738 19.6067 44.7726 19.6045 44.7717C19.6029 44.7711 19.6012 44.7704 19.5996 44.7698H19.5986C16.7631 43.5931 14.6871 44.6023 13.2109 45.387C12.4264 45.804 11.9531 46.0664 11.5264 46.1467C11.3495 46.18 11.2187 46.1709 11.1025 46.134C10.9834 46.0962 10.8152 46.0085 10.5967 45.7903H10.5977L8.22363 43.4055L8.22168 43.4036C7.9934 43.1752 7.90035 42.9997 7.86035 42.8762C7.82191 42.7573 7.81319 42.6272 7.8457 42.4543C7.92493 42.0333 8.18759 41.5686 8.61133 40.7893C8.99853 40.0772 9.46649 39.1798 9.6748 38.1106C9.87877 37.0633 9.8272 35.8939 9.31348 34.5793V34.5159L9.23633 34.3303C8.04739 31.4944 5.86154 30.7311 4.25977 30.2356C3.40975 29.9726 2.88885 29.8211 2.5293 29.5754C2.38005 29.4734 2.29385 29.3754 2.23828 29.2688C2.18137 29.1595 2.125 28.981 2.125 28.676V25.301C2.12501 24.9863 2.18269 24.8046 2.23926 24.6956C2.29383 24.5905 2.3771 24.4955 2.52246 24.3977C2.8786 24.1583 3.3929 24.0176 4.24805 23.7629C5.02919 23.5303 5.99562 23.2208 6.90137 22.5999C7.83016 21.963 8.65525 21.0296 9.22949 19.6135C9.80202 18.2015 9.86892 16.9605 9.66211 15.8586C9.46004 14.7824 9.00347 13.8841 8.62207 13.1711C8.20514 12.3917 7.94639 11.9338 7.86719 11.5168C7.8348 11.3461 7.84336 11.2188 7.87988 11.1038C7.91778 10.9845 8.00632 10.8144 8.22656 10.5911L8.22559 10.5901C9.37928 9.4363 9.97995 8.80166 10.417 8.39185C10.8159 8.01782 10.9417 7.96698 11.0918 7.9231L11.1113 7.91724C11.4032 7.82547 11.6967 7.85421 12.1299 8.03638C12.3546 8.13087 12.5952 8.25697 12.8789 8.41528C13.148 8.56543 13.4744 8.75523 13.8037 8.92798C14.4798 9.28263 15.2963 9.63927 16.2822 9.75806C17.2804 9.87824 18.3874 9.74736 19.6436 9.22583L19.6426 9.22485C22.4852 8.06054 23.2595 5.87793 23.7607 4.27368C24.0269 3.42182 24.1799 2.89625 24.4277 2.53247C24.5309 2.38108 24.6301 2.29438 24.7363 2.23853C24.8449 2.18158 25.0222 2.12524 25.3242 2.12524C26.5927 2.12524 27.4081 2.09125 28.1162 2.10278Z" fill="white" stroke="#29166F" stroke-width="2"/>
<path d="M25.446 13.4797C27.9956 13.1871 30.5763 13.6203 32.8904 14.7297C35.2043 15.8391 37.1577 17.5795 38.5261 19.7502C39.809 21.7856 40.5288 24.1221 40.616 26.5208L40.6248 27.0012C40.6244 30.6143 39.1893 34.0792 36.6345 36.634C34.0793 39.1892 30.6133 40.6252 26.9998 40.6252C14.1812 40.6249 8.46642 24.375 18.4773 16.385L18.4792 16.384C20.4817 14.7792 22.8966 13.7724 25.446 13.4797Z" fill="#9FB1EB" stroke="#29166F" stroke-width="2"/>
<path d="M20.25 22.375H24.75C24.7832 22.375 24.8154 22.3877 24.8389 22.4111C24.8623 22.4346 24.875 22.4668 24.875 22.5V27C24.875 27.0332 24.8623 27.0654 24.8389 27.0889C24.8154 27.1123 24.7832 27.125 24.75 27.125H20.375V31.375H24.75C24.7832 31.375 24.8154 31.3877 24.8389 31.4111C24.8623 31.4346 24.875 31.4668 24.875 31.5C24.875 31.5332 24.8623 31.5654 24.8389 31.5889C24.8154 31.6123 24.7832 31.625 24.75 31.625H20.25C20.2168 31.625 20.1846 31.6123 20.1611 31.5889C20.1377 31.5654 20.125 31.5332 20.125 31.5V27C20.125 26.9668 20.1377 26.9346 20.1611 26.9111C20.1846 26.8877 20.2168 26.875 20.25 26.875H24.625V22.625H20.25C20.2168 22.625 20.1846 22.6123 20.1611 22.5889C20.1377 22.5654 20.125 22.5332 20.125 22.5C20.125 22.4668 20.1377 22.4346 20.1611 22.4111C20.1846 22.3877 20.2168 22.375 20.25 22.375ZM33.75 22.375C33.7832 22.375 33.8154 22.3877 33.8389 22.4111C33.8623 22.4346 33.875 22.4668 33.875 22.5V31.5C33.875 31.5332 33.8623 31.5654 33.8389 31.5889C33.8154 31.6123 33.7832 31.625 33.75 31.625C33.7168 31.625 33.6846 31.6123 33.6611 31.5889C33.6377 31.5654 33.625 31.5332 33.625 31.5V27.125H29.25C29.2168 27.125 29.1846 27.1123 29.1611 27.0889C29.1377 27.0654 29.125 27.0332 29.125 27V22.5C29.125 22.4668 29.1377 22.4346 29.1611 22.4111C29.1846 22.3877 29.2168 22.375 29.25 22.375C29.2832 22.375 29.3154 22.3877 29.3389 22.4111C29.3623 22.4346 29.375 22.4668 29.375 22.5V26.875H33.625V22.5C33.625 22.4668 33.6377 22.4346 33.6611 22.4111C33.6846 22.3877 33.7168 22.375 33.75 22.375Z" fill="#29166F" stroke="#29166F" stroke-width="2"/>
<path d="M27 12.25C30.9119 12.25 34.6635 13.8042 37.4297 16.5703C40.1958 19.3365 41.75 23.0881 41.75 27C41.75 29.9171 40.8852 32.7688 39.2646 35.1943C37.6439 37.6199 35.3397 39.5106 32.6445 40.627C29.9493 41.7433 26.9833 42.0359 24.1221 41.4668C21.261 40.8976 18.6331 39.4924 16.5703 37.4297C14.5076 35.3669 13.1024 32.739 12.5332 29.8779C11.9641 27.0167 12.2567 24.0507 13.373 21.3555C14.4894 18.6603 16.3801 16.3561 18.8057 14.7354C21.2312 13.1148 24.0829 12.25 27 12.25ZM32.5488 13.6035C29.8993 12.5061 26.9836 12.2188 24.1709 12.7783C21.3583 13.3378 18.7749 14.7193 16.7471 16.7471C14.7193 18.7749 13.3378 21.3583 12.7783 24.1709C12.2188 26.9836 12.5061 29.8993 13.6035 32.5488C14.701 35.1984 16.5598 37.4634 18.9443 39.0566C21.3288 40.6498 24.1323 41.5 27 41.5C30.8456 41.5 34.5337 39.9722 37.2529 37.2529C39.9722 34.5337 41.5 30.8456 41.5 27C41.5 24.1323 40.6498 21.3288 39.0566 18.9443C37.4634 16.5598 35.1984 14.701 32.5488 13.6035Z" fill="#29166F" stroke="#29166F" stroke-width="2"/>
<mask id="path-5-inside-1_264_120" fill="white">
<path d="M51.5475 22.0725C49.5787 21.51 47.7225 21.24 46.7212 18.7988C45.72 16.3575 46.98 14.6813 47.8462 13.1175C48.1989 12.4728 48.3314 11.7306 48.2238 11.0037C48.1162 10.2768 47.7743 9.60488 47.25 9.09L44.91 6.75C44.3911 6.23115 43.7172 5.89556 42.9905 5.79406C42.2637 5.69256 41.5237 5.83068 40.8825 6.1875L39.3075 7.065C38.6807 7.41267 37.9836 7.61427 37.268 7.65476C36.5524 7.69526 35.8369 7.57359 35.175 7.29885C34.513 7.02411 33.9216 6.6034 33.445 6.06811C32.9684 5.53282 32.6189 4.89679 32.4225 4.2075L31.9275 2.48625C31.7328 1.77289 31.3092 1.14323 30.7218 0.694042C30.1344 0.244858 29.4157 0.00101779 28.6763 3.37467e-06H25.3013C24.5662 -0.00103578 23.8509 0.237938 23.264 0.680604C22.6772 1.12327 22.2509 1.74542 22.05 2.4525C21.5325 4.26375 21.24 6.255 18.7988 7.2675C16.3575 8.28 14.6363 7.00875 13.095 6.1425C12.4516 5.79674 11.7134 5.66904 10.9912 5.77859C10.2691 5.88813 9.60193 6.22899 9.09 6.75L6.75 9.09C6.22935 9.60757 5.89165 10.2808 5.78811 11.0076C5.68457 11.7344 5.82084 12.4751 6.17625 13.1175L7.05375 14.6925C7.40155 15.3185 7.60358 16.0149 7.64478 16.7299C7.68597 17.4448 7.56528 18.1599 7.29168 18.8217C7.01809 19.4835 6.59866 20.075 6.06465 20.5522C5.53063 21.0293 4.89581 21.3798 4.2075 21.5775L2.475 22.0725C1.76374 22.2693 1.13658 22.6938 0.689568 23.281C0.242558 23.8682 0.000339541 24.5858 3.37467e-06 25.3238V28.6988C-0.00103578 29.4338 0.237938 30.1491 0.680604 30.736C1.12327 31.3228 1.74542 31.7491 2.4525 31.95C4.41 32.5013 6.2775 32.7825 7.27875 35.2238C8.28 37.665 7.03125 39.3413 6.15375 40.905C5.80659 41.5472 5.67705 42.2847 5.78455 43.0068C5.89206 43.729 6.23082 44.3967 6.75 44.91L9.09 47.25C9.60757 47.7707 10.2808 48.1084 11.0076 48.2119C11.7344 48.3154 12.4751 48.1792 13.1175 47.8237L14.715 46.935C15.3394 46.5913 16.0331 46.3923 16.7447 46.3526C17.4563 46.313 18.1678 46.4337 18.8265 46.7058C19.4853 46.9779 20.0745 47.3946 20.5506 47.9249C21.0268 48.4553 21.3777 49.0858 21.5775 49.77L22.0725 51.525C22.2693 52.2363 22.6938 52.8634 23.281 53.3104C23.8682 53.7574 24.5858 53.9997 25.3238 54H28.6988C29.4338 54.001 30.1491 53.7621 30.736 53.3194C31.3228 52.8767 31.7491 52.2546 31.95 51.5475C32.5013 49.59 32.7825 47.7225 35.2238 46.7212C37.665 45.72 39.3188 46.9687 40.905 47.8462C41.5472 48.1934 42.2847 48.323 43.0068 48.2155C43.729 48.1079 44.3967 47.7692 44.91 47.25L47.25 44.91C47.7688 44.3911 48.1044 43.7172 48.2059 42.9905C48.3074 42.2637 48.1693 41.5237 47.8125 40.8825L46.9237 39.285C46.5821 38.6618 46.3843 37.9699 46.345 37.2602C46.3058 36.5505 46.426 35.8411 46.6968 35.1839C46.9677 34.5268 47.3823 33.9387 47.9102 33.4628C48.4381 32.9869 49.0659 32.6352 49.7475 32.4338L51.525 31.9275C52.2363 31.7307 52.8634 31.3062 53.3104 30.719C53.7574 30.1318 53.9997 29.4142 54 28.6763V25.3013C53.9962 24.57 53.7549 23.8598 53.3126 23.2775C52.8703 22.6953 52.2509 22.2724 51.5475 22.0725ZM51.75 28.6763C51.75 29.655 51.03 29.7338 49.1625 30.2625C48.1525 30.5563 47.2216 31.0737 46.4388 31.7763C45.6559 32.4789 45.0413 33.3487 44.6404 34.3212C44.2396 35.2936 44.0627 36.3439 44.123 37.394C44.1833 38.4442 44.4792 39.4673 44.9888 40.3875C45.8775 41.985 46.4062 42.6375 45.6862 43.3237C43.2788 45.7312 42.9188 46.4175 41.9738 45.8888C40.05 44.7638 37.7438 43.245 34.29 44.6737C29.0813 46.8225 30.915 51.7612 28.665 51.7612C23.9963 51.7612 24.6038 52.2675 23.7263 49.185C23.3003 47.7245 22.4121 46.4416 21.195 45.5288C19.9779 44.6159 18.4976 44.1225 16.9763 44.1225C14.9063 44.1225 13.7475 44.9212 12.0038 45.8888C11.0588 46.4062 10.6988 45.7312 8.29125 43.3237C7.54875 42.5812 8.15625 41.895 8.98875 40.3875C9.49817 39.4665 9.79363 38.4427 9.85322 37.3919C9.91281 36.3412 9.735 35.2905 9.33297 34.3178C8.93095 33.3452 8.31503 32.4756 7.53095 31.7735C6.74686 31.0715 5.81474 30.555 4.80375 30.2625C3.105 29.7675 2.25 29.7113 2.25 28.6763C2.25 25.1888 2.03625 24.5363 3.07125 24.2438C5.32125 23.5913 7.95375 23.0625 9.34875 19.6875C10.7438 16.3125 9.27 14.0625 8.1225 12.0263C7.605 11.0813 8.28 10.71 10.6875 8.31375C11.4075 7.59375 12.0375 8.13375 13.59 9C14.5125 9.50493 15.5366 9.79648 16.5867 9.85318C17.6368 9.90989 18.6863 9.73031 19.6579 9.32766C20.6294 8.92501 21.4982 8.30956 22.2004 7.52663C22.9025 6.7437 23.4201 5.81323 23.715 4.80375C24.2663 2.97 24.3 2.25 25.3238 2.25C28.7663 2.25 29.4638 2.03625 29.7563 3.07125C30.3638 5.175 30.8813 7.93125 34.3125 9.34875C39.555 11.52 41.7487 6.75 43.3125 8.31375C46.5863 11.5763 46.5525 10.8113 44.9888 13.6238C44.4792 14.544 44.1833 15.5671 44.123 16.6172C44.0627 17.6674 44.2396 18.7176 44.6404 19.6901C45.0413 20.6626 45.6559 21.5324 46.4388 22.235C47.2216 22.9376 48.1525 23.4549 49.1625 23.7488C52.2675 24.615 51.75 24.0525 51.75 28.6763Z"/>
</mask>
<path d="M51.5475 22.0725C49.5787 21.51 47.7225 21.24 46.7212 18.7988C45.72 16.3575 46.98 14.6813 47.8462 13.1175C48.1989 12.4728 48.3314 11.7306 48.2238 11.0037C48.1162 10.2768 47.7743 9.60488 47.25 9.09L44.91 6.75C44.3911 6.23115 43.7172 5.89556 42.9905 5.79406C42.2637 5.69256 41.5237 5.83068 40.8825 6.1875L39.3075 7.065C38.6807 7.41267 37.9836 7.61427 37.268 7.65476C36.5524 7.69526 35.8369 7.57359 35.175 7.29885C34.513 7.02411 33.9216 6.6034 33.445 6.06811C32.9684 5.53282 32.6189 4.89679 32.4225 4.2075L31.9275 2.48625C31.7328 1.77289 31.3092 1.14323 30.7218 0.694042C30.1344 0.244858 29.4157 0.00101779 28.6763 3.37467e-06H25.3013C24.5662 -0.00103578 23.8509 0.237938 23.264 0.680604C22.6772 1.12327 22.2509 1.74542 22.05 2.4525C21.5325 4.26375 21.24 6.255 18.7988 7.2675C16.3575 8.28 14.6363 7.00875 13.095 6.1425C12.4516 5.79674 11.7134 5.66904 10.9912 5.77859C10.2691 5.88813 9.60193 6.22899 9.09 6.75L6.75 9.09C6.22935 9.60757 5.89165 10.2808 5.78811 11.0076C5.68457 11.7344 5.82084 12.4751 6.17625 13.1175L7.05375 14.6925C7.40155 15.3185 7.60358 16.0149 7.64478 16.7299C7.68597 17.4448 7.56528 18.1599 7.29168 18.8217C7.01809 19.4835 6.59866 20.075 6.06465 20.5522C5.53063 21.0293 4.89581 21.3798 4.2075 21.5775L2.475 22.0725C1.76374 22.2693 1.13658 22.6938 0.689568 23.281C0.242558 23.8682 0.000339541 24.5858 3.37467e-06 25.3238V28.6988C-0.00103578 29.4338 0.237938 30.1491 0.680604 30.736C1.12327 31.3228 1.74542 31.7491 2.4525 31.95C4.41 32.5013 6.2775 32.7825 7.27875 35.2238C8.28 37.665 7.03125 39.3413 6.15375 40.905C5.80659 41.5472 5.67705 42.2847 5.78455 43.0068C5.89206 43.729 6.23082 44.3967 6.75 44.91L9.09 47.25C9.60757 47.7707 10.2808 48.1084 11.0076 48.2119C11.7344 48.3154 12.4751 48.1792 13.1175 47.8237L14.715 46.935C15.3394 46.5913 16.0331 46.3923 16.7447 46.3526C17.4563 46.313 18.1678 46.4337 18.8265 46.7058C19.4853 46.9779 20.0745 47.3946 20.5506 47.9249C21.0268 48.4553 21.3777 49.0858 21.5775 49.77L22.0725 51.525C22.2693 52.2363 22.6938 52.8634 23.281 53.3104C23.8682 53.7574 24.5858 53.9997 25.3238 54H28.6988C29.4338 54.001 30.1491 53.7621 30.736 53.3194C31.3228 52.8767 31.7491 52.2546 31.95 51.5475C32.5013 49.59 32.7825 47.7225 35.2238 46.7212C37.665 45.72 39.3188 46.9687 40.905 47.8462C41.5472 48.1934 42.2847 48.323 43.0068 48.2155C43.729 48.1079 44.3967 47.7692 44.91 47.25L47.25 44.91C47.7688 44.3911 48.1044 43.7172 48.2059 42.9905C48.3074 42.2637 48.1693 41.5237 47.8125 40.8825L46.9237 39.285C46.5821 38.6618 46.3843 37.9699 46.345 37.2602C46.3058 36.5505 46.426 35.8411 46.6968 35.1839C46.9677 34.5268 47.3823 33.9387 47.9102 33.4628C48.4381 32.9869 49.0659 32.6352 49.7475 32.4338L51.525 31.9275C52.2363 31.7307 52.8634 31.3062 53.3104 30.719C53.7574 30.1318 53.9997 29.4142 54 28.6763V25.3013C53.9962 24.57 53.7549 23.8598 53.3126 23.2775C52.8703 22.6953 52.2509 22.2724 51.5475 22.0725ZM51.75 28.6763C51.75 29.655 51.03 29.7338 49.1625 30.2625C48.1525 30.5563 47.2216 31.0737 46.4388 31.7763C45.6559 32.4789 45.0413 33.3487 44.6404 34.3212C44.2396 35.2936 44.0627 36.3439 44.123 37.394C44.1833 38.4442 44.4792 39.4673 44.9888 40.3875C45.8775 41.985 46.4062 42.6375 45.6862 43.3237C43.2788 45.7312 42.9188 46.4175 41.9738 45.8888C40.05 44.7638 37.7438 43.245 34.29 44.6737C29.0813 46.8225 30.915 51.7612 28.665 51.7612C23.9963 51.7612 24.6038 52.2675 23.7263 49.185C23.3003 47.7245 22.4121 46.4416 21.195 45.5288C19.9779 44.6159 18.4976 44.1225 16.9763 44.1225C14.9063 44.1225 13.7475 44.9212 12.0038 45.8888C11.0588 46.4062 10.6988 45.7312 8.29125 43.3237C7.54875 42.5812 8.15625 41.895 8.98875 40.3875C9.49817 39.4665 9.79363 38.4427 9.85322 37.3919C9.91281 36.3412 9.735 35.2905 9.33297 34.3178C8.93095 33.3452 8.31503 32.4756 7.53095 31.7735C6.74686 31.0715 5.81474 30.555 4.80375 30.2625C3.105 29.7675 2.25 29.7113 2.25 28.6763C2.25 25.1888 2.03625 24.5363 3.07125 24.2438C5.32125 23.5913 7.95375 23.0625 9.34875 19.6875C10.7438 16.3125 9.27 14.0625 8.1225 12.0263C7.605 11.0813 8.28 10.71 10.6875 8.31375C11.4075 7.59375 12.0375 8.13375 13.59 9C14.5125 9.50493 15.5366 9.79648 16.5867 9.85318C17.6368 9.90989 18.6863 9.73031 19.6579 9.32766C20.6294 8.92501 21.4982 8.30956 22.2004 7.52663C22.9025 6.7437 23.4201 5.81323 23.715 4.80375C24.2663 2.97 24.3 2.25 25.3238 2.25C28.7663 2.25 29.4638 2.03625 29.7563 3.07125C30.3638 5.175 30.8813 7.93125 34.3125 9.34875C39.555 11.52 41.7487 6.75 43.3125 8.31375C46.5863 11.5763 46.5525 10.8113 44.9888 13.6238C44.4792 14.544 44.1833 15.5671 44.123 16.6172C44.0627 17.6674 44.2396 18.7176 44.6404 19.6901C45.0413 20.6626 45.6559 21.5324 46.4388 22.235C47.2216 22.9376 48.1525 23.4549 49.1625 23.7488C52.2675 24.615 51.75 24.0525 51.75 28.6763Z" fill="#29166F" stroke="#29166F" stroke-width="4" mask="url(#path-5-inside-1_264_120)"/>
</svg>
