<svg width="50" height="54" viewBox="0 0 50 54" fill="none" xmlns="http://www.w3.org/2000/svg">
<path d="M50 27C49.9967 24.4074 49.0907 21.8952 47.4347 19.8869C45.7788 17.8785 43.4741 16.4967 40.9091 15.9745V2.24886C40.9089 1.83746 40.7947 1.434 40.5791 1.08235C40.3634 0.730694 40.0545 0.444303 39.6859 0.254315C39.3174 0.0643273 38.9033 -0.0219856 38.4886 0.00476135C38.074 0.0315083 37.6746 0.170291 37.3341 0.40602L15.1932 15.7495H4.54545C3.33992 15.7495 2.18377 16.2236 1.33133 17.0676C0.478895 17.9115 0 19.0562 0 20.2497V33.7503C0 34.9438 0.478895 36.0885 1.33133 36.9324C2.18377 37.7764 3.33992 38.2505 4.54545 38.2505H15.1932L37.3341 53.594C37.6746 53.8297 38.074 53.9685 38.4886 53.9952C38.9033 54.022 39.3174 53.9357 39.6859 53.7457C40.0545 53.5557 40.3634 53.2693 40.5791 52.9176C40.7947 52.566 40.9089 52.1625 40.9091 51.7511V38.0255C43.4741 37.5033 45.7788 36.1215 47.4347 34.1131C49.0907 32.1048 49.9967 29.5926 50 27ZM4.54545 20.2497H13.6364V33.7503H4.54545V20.2497ZM36.3636 47.4287L18.1818 34.8281V19.1719L36.3636 6.5713V47.4287ZM40.9091 33.3363V20.6637C42.2376 21.1219 43.3892 21.9781 44.204 23.1135C45.0189 24.2489 45.4567 25.6072 45.4567 27C45.4567 28.3928 45.0189 29.7511 44.204 30.8865C43.3892 32.0219 42.2376 32.8781 40.9091 33.3363Z" fill="#29166F"/>
</svg>
