<svg width="54" height="54" viewBox="0 0 54 54" fill="none" xmlns="http://www.w3.org/2000/svg">
<path d="M27 1H27.001C32.7236 0.995623 38.2876 2.8799 42.8301 6.36035C47.3679 9.83723 50.6332 14.7128 52.1201 20.2324L52.5605 22.1797L52.6699 22.9004L52.7803 23.6289L52.8887 24.583L52.9443 25.5566V25.5557L53 27C53 41.36 41.36 53 27 53C12.64 53 1 41.36 1 27C1 12.64 12.64 1 27 1ZM27 11.4619C18.4059 11.4619 11.4619 18.4059 11.4619 27C11.4619 35.5941 18.4059 42.5381 27 42.5381C35.5941 42.5381 42.5381 35.5941 42.5381 27C42.5381 18.4059 35.5941 11.4619 27 11.4619ZM30.1543 17.6152V23.8457H36.3848V30.1543H30.1543V36.3848H23.8457V30.1543H17.6152V23.8457H23.8457V17.6152H30.1543ZM23.9229 23.9229H17.6924V30.0771H23.9229V36.3076H30.0771V30.0771H36.3076V23.9229H30.0771V17.6924H23.9229V23.9229Z" fill="#9FB1EB" stroke="#29166F" stroke-width="2"/>
</svg>
