<svg width="47" height="47" viewBox="0 0 47 47" fill="none" xmlns="http://www.w3.org/2000/svg">
<path d="M45.0657 17.5898L42.629 15.1678C41.6682 14.2005 41.1277 12.8931 41.125 11.5297V3.67192C41.125 2.69808 40.7381 1.76412 40.0495 1.07551C39.3609 0.386904 38.427 4.7027e-05 37.4531 4.7027e-05H32.2244C32.0838 -2.63863e-05 31.9462 0.0402449 31.8278 0.116078C30.6992 0.842474 29.3946 1.24907 28.0531 1.29255C26.5842 1.32772 25.1389 0.918151 23.9068 0.117547C23.7857 0.0392812 23.6442 -0.00158474 23.5 4.7027e-05H18.3594C17.3855 4.7027e-05 16.4516 0.386904 15.763 1.07551C15.0744 1.76412 14.6875 2.69808 14.6875 3.67192V11.5297C14.6853 12.8923 14.146 14.199 13.1864 15.1663L10.7454 17.5912C9.51094 18.8345 8.81644 20.5143 8.8125 22.2663V29.375H8.78312C8.2415 29.3858 7.72627 29.611 7.35044 30.0012C6.9746 30.3913 6.76884 30.9146 6.77828 31.4562V32.0188C5.25748 32.72 3.9697 33.8427 3.06766 35.2536C2.16562 36.6646 1.68717 38.3047 1.68906 39.9794V42.0063C1.20845 42.1216 0.780579 42.3952 0.474231 42.783C0.167883 43.1709 0.000855308 43.6505 0 44.1448L0 44.7969C0 45.3812 0.232114 45.9416 0.64528 46.3547C1.05845 46.7679 1.61882 47 2.20312 47H46.2656C46.4604 47 46.6472 46.9226 46.7849 46.7849C46.9226 46.6472 47 46.4604 47 46.2656V22.2663C46.9959 20.5136 46.3008 18.8332 45.0657 17.5898ZM3.15781 39.9794C3.15409 38.7002 3.4866 37.4425 4.12201 36.3322C4.75743 35.222 5.67344 34.2982 6.77828 33.6535V37.2901C6.77828 37.4849 6.85565 37.6717 6.99337 37.8094C7.1311 37.9471 7.31789 38.0245 7.51266 38.0245C7.70742 38.0245 7.89422 37.9471 8.03194 37.8094C8.16966 37.6717 8.24703 37.4849 8.24703 37.2901V32.5225C8.24832 32.4981 8.24832 32.4736 8.24703 32.4491V31.4562C8.24002 31.3047 8.2919 31.1563 8.39183 31.0421C8.49176 30.928 8.63197 30.8569 8.78312 30.8438H14.7169C14.868 30.8569 15.0082 30.928 15.1082 31.0421C15.2081 31.1563 15.26 31.3047 15.253 31.4562V32.4506C15.2517 32.475 15.2517 32.4995 15.253 32.524V37.2901C15.253 37.4849 15.3303 37.6717 15.4681 37.8094C15.6058 37.9471 15.7926 38.0245 15.9873 38.0245C16.1821 38.0245 16.3689 37.9471 16.5066 37.8094C16.6443 37.6717 16.7217 37.4849 16.7217 37.2901V33.6638C17.8274 34.314 18.7458 35.2395 19.3875 36.3501C20.0189 37.4552 20.3496 38.7066 20.3466 39.9794V41.9416H3.15781V39.9794ZM9.54688 45.5313H2.20312C2.00836 45.5313 1.82157 45.4539 1.68384 45.3162C1.54612 45.1784 1.46875 44.9916 1.46875 44.7969V44.1448C1.46875 43.95 1.54612 43.7632 1.68384 43.6255C1.82157 43.4878 2.00836 43.4104 2.20312 43.4104H2.39553C2.40581 43.4104 2.41462 43.4104 2.42344 43.4104H21.0766C21.0868 43.4104 21.0957 43.4104 21.1045 43.4104H21.2969C21.4916 43.4104 21.6784 43.4878 21.8162 43.6255C21.9539 43.7632 22.0312 43.95 22.0312 44.1448V44.7969C22.0312 44.9916 21.9539 45.1784 21.8162 45.3162C21.6784 45.4539 21.4916 45.5313 21.2969 45.5313H9.54688ZM27.1719 45.5313H23.3649C23.4519 45.2961 23.4976 45.0476 23.5 44.7969V44.1448C23.4991 43.6505 23.3321 43.1709 23.0258 42.783C22.7194 42.3952 22.2915 42.1216 21.8109 42.0063V41.125H27.1719V45.5313ZM27.1719 39.6563H21.8051C21.8051 39.5681 21.7786 39.4815 21.7728 39.3934C21.7511 39.0589 21.7104 38.7259 21.6508 38.3961C21.6259 38.258 21.6024 38.1214 21.5701 37.9848C21.4839 37.6102 21.373 37.2417 21.2381 36.8818C21.2176 36.8289 21.2102 36.7702 21.1882 36.7173H27.1719V39.6563ZM27.1719 35.25H20.4024C19.5005 33.8526 18.2248 32.7362 16.7202 32.0276V31.4562C16.7181 31.2484 16.6854 31.0421 16.6233 30.8438H27.1719V35.25ZM27.1719 29.375H10.2812V26.4375H27.1719V29.375ZM27.1719 24.9688H10.2812V22.2663C10.2834 20.9037 10.8228 19.597 11.7823 18.6297L14.2219 16.2048C15.4569 14.9617 16.1519 13.2819 16.1562 11.5297V3.67192C16.1562 3.08761 16.3884 2.52724 16.8015 2.11408C17.2147 1.70091 17.7751 1.4688 18.3594 1.4688H21.5598L27.1719 18.8426V24.9688ZM23.1034 1.4688H23.287C24.7346 2.34394 26.4001 2.79201 28.0913 2.76129C29.6264 2.71289 31.1227 2.26759 32.4344 1.4688H32.7002L27.9062 16.3355L23.1034 1.4688ZM45.5312 45.5313H28.6406V41.125H45.5312V45.5313ZM45.5312 39.6563H28.6406V36.7188H45.5312V39.6563ZM45.5312 35.25H28.6406V30.8438H45.5312V35.25ZM45.5312 29.375H28.6406V26.4375H45.5312V29.375ZM45.5312 24.9688H28.6406V18.8412L34.2424 1.4688H37.4531C38.0374 1.4688 38.5978 1.70091 39.011 2.11408C39.4241 2.52724 39.6562 3.08761 39.6562 3.67192V11.5297C39.66 13.2829 40.355 14.9639 41.5906 16.2077L44.0272 18.6297C44.9877 19.5966 45.5281 20.9034 45.5312 22.2663V24.9688Z" fill="#29166F"/>
</svg>
