<svg width="60" height="32" viewBox="0 0 60 32" fill="none" xmlns="http://www.w3.org/2000/svg">
<path fill-rule="evenodd" clip-rule="evenodd" d="M23.4001 24.5555H39.5999V19H45V25.3781C45 27.3784 43.0298 29 40.5995 29H22.4005C19.9702 29 18 27.3784 18 25.3781V19H23.4001V24.5555Z" fill="#29166F"/>
<path fill-rule="evenodd" clip-rule="evenodd" d="M47.7273 10.2857V8.00007H60V23.9999H47.7273V21.7143H19.7611C17.2774 21.7143 15.0722 23.0462 14.2868 25.0211L11.5112 32H0V0H11.5112L14.2868 6.97891C15.0722 8.95376 17.2774 10.2857 19.7611 10.2857H47.7273ZM53.1819 19.4284H54.5453V12.5713H53.1819V14.8572H19.7611C14.9296 14.8572 10.64 12.266 9.11227 8.42439L7.57965 4.57151H5.45434V27.4285H7.57965L9.11227 23.5753C10.64 19.734 14.9296 17.1428 19.7611 17.1428H53.1819V19.4284Z" fill="#29166F"/>
</svg>
