<svg width="52" height="52" viewBox="0 0 52 52" fill="none" xmlns="http://www.w3.org/2000/svg">
<path fill-rule="evenodd" clip-rule="evenodd" d="M7.631 42.523L5.577 44.577C5.07 44.33 4.498 44.2 3.9 44.2C1.742 44.2 0 45.942 0 48.1C0 50.258 1.742 52 3.9 52C6.058 52 7.8 50.258 7.8 48.1C7.8 47.502 7.657 46.93 7.423 46.423L9.477 44.369C10.049 44.876 10.634 45.357 11.245 45.812C11.622 46.098 12.116 46.15 12.545 45.955L15.73 44.538C17.134 45.318 18.616 45.929 20.15 46.371L21.398 49.621C21.567 50.063 21.957 50.375 22.425 50.44C24.791 50.791 27.209 50.791 29.575 50.44C30.043 50.375 30.433 50.063 30.602 49.621L31.85 46.371C33.384 45.929 34.866 45.318 36.27 44.538L39.455 45.955C39.884 46.15 40.378 46.085 40.755 45.812C41.366 45.357 41.964 44.876 42.523 44.369L44.577 46.423C44.33 46.93 44.2 47.502 44.2 48.1C44.2 50.258 45.942 52 48.1 52C50.258 52 52 50.258 52 48.1C52 45.942 50.258 44.2 48.1 44.2C47.502 44.2 46.93 44.343 46.423 44.577L44.369 42.523C44.876 41.951 45.357 41.366 45.812 40.755C46.098 40.378 46.15 39.884 45.955 39.455L44.538 36.27C45.318 34.866 45.929 33.384 46.371 31.85L49.621 30.602C50.063 30.433 50.375 30.043 50.44 29.575C50.791 27.209 50.791 24.791 50.44 22.425C50.375 21.957 50.063 21.567 49.621 21.398L46.371 20.15C45.929 18.616 45.318 17.134 44.538 15.73L45.955 12.545C46.15 12.116 46.085 11.622 45.812 11.245C45.357 10.634 44.876 10.036 44.369 9.477L46.423 7.423C46.93 7.67 47.502 7.8 48.1 7.8C50.258 7.8 52 6.058 52 3.9C52 1.742 50.258 0 48.1 0C45.942 0 44.2 1.742 44.2 3.9C44.2 4.498 44.343 5.07 44.577 5.577L42.523 7.631C41.951 7.124 41.366 6.643 40.755 6.188C40.378 5.902 39.884 5.85 39.455 6.045L36.27 7.462C34.866 6.682 33.384 6.071 31.85 5.629L30.602 2.379C30.433 1.937 30.043 1.625 29.575 1.56C27.209 1.209 24.791 1.209 22.425 1.56C21.957 1.625 21.567 1.937 21.398 2.379L20.15 5.629C18.616 6.071 17.134 6.682 15.73 7.462L12.545 6.045C12.116 5.85 11.622 5.915 11.245 6.188C10.634 6.643 10.036 7.124 9.477 7.631L7.423 5.577C7.67 5.07 7.8 4.498 7.8 3.9C7.8 1.742 6.058 0 3.9 0C1.742 0 0 1.742 0 3.9C0 6.058 1.742 7.8 3.9 7.8C4.498 7.8 5.07 7.657 5.577 7.423L7.631 9.477C7.124 10.049 6.643 10.634 6.188 11.245C5.902 11.622 5.85 12.116 6.045 12.545L7.462 15.73C6.682 17.134 6.071 18.616 5.629 20.15L2.379 21.398C1.937 21.567 1.625 21.957 1.56 22.425C1.209 24.791 1.209 27.209 1.56 29.575C1.625 30.043 1.937 30.433 2.379 30.602L5.629 31.85C6.071 33.384 6.682 34.866 7.462 36.27L6.045 39.455C5.85 39.884 5.915 40.378 6.188 40.755C6.643 41.366 7.124 41.964 7.631 42.523ZM25.987 6.5C25.272 6.5 24.687 7.085 24.687 7.8V9.802C21.177 10.075 17.979 11.479 15.457 13.624L14.04 12.207C13.533 11.7 12.714 11.7 12.207 12.207C11.7 12.714 11.7 13.533 12.207 14.04L13.624 15.457C11.466 17.979 10.075 21.177 9.802 24.687H7.8C7.085 24.687 6.5 25.272 6.5 25.987C6.5 26.702 7.085 27.287 7.8 27.287H9.802C10.075 30.797 11.479 33.995 13.624 36.517L12.207 37.934C11.7 38.441 11.7 39.26 12.207 39.767C12.714 40.274 13.533 40.274 14.04 39.767L15.457 38.35C17.979 40.508 21.177 41.899 24.687 42.172V44.174C24.687 44.889 25.272 45.474 25.987 45.474C26.702 45.474 27.287 44.889 27.287 44.174V42.172C30.797 41.899 33.995 40.495 36.517 38.35L37.934 39.767C38.441 40.274 39.26 40.274 39.767 39.767C40.274 39.26 40.274 38.441 39.767 37.934L38.35 36.517C40.508 33.995 41.899 30.797 42.172 27.287H44.174C44.889 27.287 45.474 26.702 45.474 25.987C45.474 25.272 44.889 24.687 44.174 24.687H42.172C41.899 21.177 40.495 17.979 38.35 15.457L39.767 14.04C40.274 13.533 40.274 12.714 39.767 12.207C39.26 11.7 38.441 11.7 37.934 12.207L36.517 13.624C33.995 11.466 30.797 10.075 27.287 9.802V7.8C27.287 7.085 26.715 6.5 26 6.5H25.987ZM25.987 12.35C33.527 12.35 39.637 18.46 39.637 26C39.637 33.54 33.527 39.65 25.987 39.65C18.447 39.65 12.337 33.54 12.337 26C12.337 18.46 18.447 12.35 25.987 12.35ZM31.187 18.421V16.9C31.187 16.185 30.602 15.6 29.887 15.6C29.172 15.6 28.587 16.185 28.587 16.9V18.2H27.287V16.9C27.287 16.185 26.702 15.6 25.987 15.6C25.272 15.6 24.687 16.185 24.687 16.9V18.2H23.387V16.9C23.387 16.185 22.802 15.6 22.087 15.6C21.372 15.6 20.787 16.185 20.787 16.9V18.421C20.241 18.616 19.747 18.928 19.318 19.344C18.902 19.76 18.59 20.267 18.395 20.813H16.874C16.159 20.813 15.574 21.398 15.574 22.113C15.574 22.828 16.159 23.413 16.874 23.413H18.174V24.713H16.874C16.159 24.713 15.574 25.298 15.574 26.013C15.574 26.728 16.159 27.313 16.874 27.313H18.174V28.613H16.874C16.159 28.613 15.574 29.198 15.574 29.913C15.574 30.628 16.159 31.213 16.874 31.213H18.395C18.59 31.759 18.902 32.253 19.318 32.682C19.734 33.098 20.241 33.41 20.787 33.605V35.126C20.787 35.841 21.372 36.426 22.087 36.426C22.802 36.426 23.387 35.841 23.387 35.126V33.826H24.687V35.126C24.687 35.841 25.272 36.426 25.987 36.426C26.702 36.426 27.287 35.841 27.287 35.126V33.826H28.587V35.126C28.587 35.841 29.172 36.426 29.887 36.426C30.602 36.426 31.187 35.841 31.187 35.126V33.605C31.733 33.41 32.227 33.098 32.656 32.682C33.072 32.266 33.384 31.759 33.579 31.213H35.1C35.815 31.213 36.4 30.628 36.4 29.913C36.4 29.198 35.815 28.613 35.1 28.613H33.8V27.313H35.1C35.815 27.313 36.4 26.728 36.4 26.013C36.4 25.298 35.815 24.713 35.1 24.713H33.8V23.413H35.1C35.815 23.413 36.4 22.828 36.4 22.113C36.4 21.398 35.815 20.813 35.1 20.813H33.579C33.384 20.267 33.072 19.773 32.656 19.344C32.24 18.928 31.733 18.616 31.187 18.421ZM22.074 20.8H29.913C30.251 20.8 30.576 20.93 30.823 21.177C31.057 21.424 31.2 21.749 31.2 22.087V29.926C31.2 30.264 31.07 30.589 30.823 30.836C30.576 31.07 30.251 31.213 29.913 31.213H22.074C21.736 31.213 21.411 31.083 21.164 30.836C20.93 30.589 20.787 30.264 20.787 29.926V22.087C20.787 21.749 20.917 21.424 21.164 21.177C21.411 20.943 21.736 20.8 22.074 20.8ZM22.087 28.6C22.087 29.315 22.672 29.9 23.387 29.9H28.587C29.302 29.9 29.887 29.315 29.887 28.6V25.35C29.887 24.999 29.744 24.674 29.51 24.427L27.56 22.477C27.313 22.23 26.988 22.1 26.637 22.1H23.387C22.672 22.1 22.087 22.685 22.087 23.4V28.6ZM24.687 27.3V24.7H26.104L27.287 25.883V27.3H24.687Z" fill="#29166F"/>
</svg>
