<svg width="54" height="54" viewBox="0 0 54 54" fill="none" xmlns="http://www.w3.org/2000/svg">
<path d="M24.9089 0V0.00372345H24.8288C23.4639 0.0409584 22.3132 1.06492 22.1195 2.41841L21.8253 4.46633C19.3115 5.04533 16.9119 6.03949 14.7252 7.4079L13.068 6.16797C12.5247 5.76331 11.854 5.56739 11.1782 5.61591C10.5024 5.66444 9.86661 5.9542 9.38669 6.43234L6.43345 9.38693C5.95599 9.86712 5.66656 10.5026 5.6177 11.1779C5.56884 11.8532 5.7638 12.5237 6.16717 13.0676L7.40172 14.7171C6.0279 16.9067 5.02974 19.3104 4.44848 21.829L2.41883 22.1176C1.74791 22.2161 1.1347 22.5523 0.690769 23.0648C0.246843 23.5773 0.00171706 24.2322 0 24.9102V29.0917C0 30.4843 1.03903 31.6795 2.41883 31.8769L4.46152 32.171C5.04248 34.6899 6.0331 37.086 7.40359 39.2773L6.16531 40.9305C5.76068 41.4745 5.56482 42.1456 5.61334 42.8218C5.66187 43.498 5.95157 44.1343 6.42972 44.6149L9.38297 47.5602C10.3699 48.5469 11.947 48.668 13.0643 47.832L14.7103 46.5995C16.9023 47.9724 19.3083 48.9691 21.829 49.5486L22.1195 51.5816C22.3169 52.963 23.5142 54.0019 24.9089 54H29.0874C29.7642 53.9965 30.4174 53.7506 30.9285 53.3069C31.4395 52.8632 31.7746 52.2511 31.873 51.5816L32.1672 49.5374C34.6854 48.9563 37.0888 47.959 39.2785 46.5865L40.7439 47.6868C41.9729 48.6065 43.7046 48.4781 44.7883 47.3927L47.5703 44.6149C48.0484 44.1343 48.3381 43.498 48.3867 42.8218C48.4352 42.1456 48.2393 41.4745 47.8347 40.9305L46.602 39.2847C47.9745 37.0949 48.9714 34.6912 49.5515 32.1729L51.341 31.9122C52.0787 31.8042 52.753 31.4348 53.2411 30.8713C53.7292 30.3077 53.9985 29.5876 54 28.8422V24.9083C53.9983 24.2303 53.7532 23.5755 53.3092 23.0629C52.8653 22.5504 52.2521 22.2143 51.5812 22.1157L49.5329 21.8215C48.954 19.3081 47.9597 16.9089 46.5908 14.7227L47.6857 13.2575C48.1295 12.6603 48.3442 11.9238 48.2909 11.1818C48.2376 10.4397 47.9198 9.74142 47.3952 9.21379L44.6152 6.43606C44.1357 5.95737 43.5001 5.66692 42.8244 5.61771C42.1486 5.5685 41.4776 5.76379 40.9339 6.16797L39.2878 7.40045C37.0947 6.0273 34.6874 5.03055 32.1654 4.45144L31.9084 2.6623C31.8014 1.92531 31.4333 1.25121 30.8712 0.762621C30.309 0.274034 29.5902 0.00341907 28.8453 0H24.9108H24.9089ZM24.8791 1.86547H28.8434C29.4654 1.86547 29.9793 2.31229 30.065 2.92667L30.4914 5.87568L31.1357 6.00041C33.9157 6.54963 36.5599 7.64248 38.9135 9.22124L39.4628 9.588L42.0455 7.65551C42.2296 7.51585 42.4584 7.44823 42.6888 7.46537C42.9192 7.48252 43.1355 7.58324 43.2968 7.74859L46.0788 10.5282C46.2915 10.7365 46.4208 11.0152 46.4424 11.3121C46.464 11.609 46.3764 11.9036 46.1961 12.1405L44.3992 14.5365L44.766 15.0857C46.3417 17.4354 47.436 20.0741 47.9855 22.8492L48.1121 23.4953L51.3205 23.957C51.7972 24.0259 52.1398 24.4205 52.1379 24.9027V28.8366C52.1379 29.4584 51.6948 29.9741 51.0803 30.0635L48.1308 30.488L48.0023 31.1321C47.4523 33.9115 46.3561 36.5541 44.7772 38.9068L44.4103 39.4542L46.345 42.042C46.4839 42.2253 46.5511 42.453 46.534 42.6823C46.5168 42.9117 46.4165 43.1269 46.2519 43.2875L43.4719 46.069C43.2623 46.2806 42.9829 46.4086 42.6857 46.4292C42.3886 46.4498 42.0942 46.3614 41.8574 46.1807L39.4591 44.3859L38.9098 44.7527C36.5581 46.3289 33.917 47.4231 31.1394 47.9717L30.4914 48.102L30.0333 51.3023C30.0021 51.5306 29.889 51.7398 29.7149 51.8909C29.5409 52.0419 29.3178 52.1246 29.0874 52.1234H24.9089C24.6778 52.1255 24.4538 52.0433 24.279 51.8921C24.1042 51.741 23.9905 51.5313 23.9592 51.3023L23.5049 48.1169L22.8569 47.9884C20.0774 47.4372 17.435 46.3399 15.0828 44.7601L14.5334 44.3934L11.9508 46.3277C11.7669 46.4676 11.5383 46.5356 11.3078 46.5188C11.0774 46.502 10.8611 46.4016 10.6994 46.2365L7.74621 43.2782C7.58137 43.1172 7.48111 42.9015 7.4643 42.6718C7.4475 42.442 7.51531 42.2141 7.65497 42.0308L9.5971 39.443L9.23028 38.8938C7.65477 36.5428 6.56113 33.9028 6.01262 31.1266L5.88414 30.4787L2.68138 30.017C2.45411 29.9916 2.2444 29.8826 2.09299 29.7113C1.94157 29.5399 1.85927 29.3184 1.86207 29.0898V24.9083C1.86207 24.4243 2.20283 24.0314 2.68138 23.9626L5.86924 23.5046L5.99772 22.8567C6.54908 20.0777 7.64655 17.4357 9.22655 15.0839L9.59338 14.5384L7.65869 11.9524C7.51927 11.769 7.45177 11.5409 7.46892 11.3111C7.48607 11.0813 7.58668 10.8658 7.75179 10.7051L10.7032 7.75232C10.8646 7.58831 11.08 7.48847 11.3095 7.47135C11.5389 7.45422 11.7668 7.52099 11.9508 7.65923L14.5446 9.59917L15.0902 9.23241C17.441 7.65977 20.0801 6.56826 22.855 6.02089L23.5012 5.89429L23.9592 2.69209C23.9894 2.46784 24.0986 2.26172 24.2672 2.11085C24.4359 1.95998 24.6529 1.87428 24.8791 1.86919V1.86547ZM27 7.45071C16.2149 7.45071 7.452 16.2158 7.452 26.9991C7.452 37.7823 16.2149 46.5437 27 46.5437C37.7851 46.5437 46.548 37.7823 46.548 26.9991C46.548 16.2158 37.7851 7.45071 27 7.45071ZM27 9.31246C29.3233 9.31099 31.6241 9.7675 33.7707 10.6559C35.9174 11.5442 37.8678 12.847 39.5104 14.4897C41.1531 16.1324 42.4557 18.0828 43.3437 20.2292C44.2318 22.3757 44.6879 24.6762 44.6859 26.9991C44.6879 29.3218 44.2318 31.6221 43.3437 33.7683C42.4556 35.9146 41.1529 37.8647 39.5102 39.5071C37.8675 41.1495 35.9171 42.452 33.7704 43.3399C31.6238 44.2279 29.3231 44.6839 27 44.6819C24.6769 44.6839 22.3762 44.2279 20.2296 43.3399C18.0829 42.452 16.1325 41.1495 14.4898 39.5071C12.8471 37.8647 11.5444 35.9146 10.6563 33.7683C9.76823 31.6221 9.31211 29.3218 9.31407 26.9991C9.31407 17.2212 17.2204 9.31246 27 9.31246ZM27 11.1742C18.2706 11.1742 11.1724 18.2712 11.1724 26.9991C11.1724 35.7288 18.2706 42.8239 27 42.8239C35.7294 42.8239 42.8276 35.7288 42.8276 26.9991C42.8276 18.2712 35.7294 11.1742 27 11.1742ZM27 13.036C34.7239 13.036 40.9655 19.2765 40.9655 26.9991C40.9655 34.7216 34.7239 40.9622 27 40.9622C25.1655 40.9641 23.3486 40.6043 21.6533 39.9033C19.9581 39.2023 18.4177 38.1738 17.1205 36.8769C15.8233 35.5799 14.7947 34.0398 14.0936 32.3448C13.3924 30.6499 13.0325 28.8333 13.0345 26.9991C13.0345 19.2765 19.2761 13.036 27 13.036ZM27 14.8977C20.3282 14.8977 14.9003 20.3284 14.9003 26.9991C14.9042 30.2064 16.1803 33.2811 18.4486 35.549C20.7168 37.8169 23.7922 39.0928 27 39.0967C30.2078 39.0928 33.2832 37.8169 35.5514 35.549C37.8197 33.2811 39.0958 30.2064 39.0997 26.9991C39.0997 20.3284 33.6718 14.8977 27 14.8977ZM27 16.7595C28.3452 16.758 29.6774 17.0219 30.9204 17.536C32.1634 18.0501 33.2927 18.8043 34.2437 19.7555C35.1947 20.7067 35.9487 21.8361 36.4624 23.0791C36.9762 24.3221 37.2396 25.6541 37.2377 26.9991C37.2396 28.3438 36.9762 29.6757 36.4624 30.9185C35.9486 32.1613 35.1945 33.2904 34.2435 34.2413C33.2924 35.1922 32.1631 35.9461 30.9201 36.4598C29.6771 36.9735 28.345 37.2369 27 37.235C25.655 37.2369 24.3229 36.9735 23.0799 36.4598C21.8369 35.9461 20.7076 35.1922 19.7565 34.2413C18.8055 33.2904 18.0514 32.1613 17.5376 30.9185C17.0239 29.6757 16.7604 28.3438 16.7623 26.9991C16.7623 21.3338 21.3356 16.7595 27 16.7595Z" fill="#29166F"/>
</svg>
