<svg width="57" height="47" viewBox="0 0 57 47" fill="none" xmlns="http://www.w3.org/2000/svg">
<path d="M44.8973 47C44.1697 47 43.4436 46.7102 42.8942 46.132C41.8092 44.9897 41.8255 43.1575 42.9326 42.0376C47.8153 37.0951 50.5047 30.4873 50.5047 23.4312C50.5047 16.4727 47.8799 9.92964 43.1119 5.00833C42.016 3.87738 42.016 2.04373 43.1119 0.913944C44.2079 -0.216998 45.9834 -0.216998 47.0796 0.913944C52.9076 6.92827 56.1163 14.9259 56.1163 23.4312C56.1163 32.0566 52.8296 40.1321 46.8619 46.1716C46.3151 46.7244 45.6069 47 44.8973 47ZM11.0232 46.8008C10.3052 46.8008 9.58748 46.5179 9.0395 45.9524C3.20986 39.9355 0 31.9378 0 23.4312C0 14.8877 3.23314 6.86601 9.10375 0.844744C10.2039 -0.286199 11.9794 -0.280697 13.0715 0.856036C14.1646 1.98987 14.1593 3.82353 13.0605 4.95042C8.25724 9.87868 5.61163 16.4414 5.61163 23.4312C5.61163 30.3911 8.23788 36.9356 13.0069 41.8584C14.1029 42.9893 14.1029 44.823 13.0069 45.9527C12.459 46.5179 11.7412 46.8008 11.0232 46.8008Z" fill="#29166F"/>
<path d="M28.058 43.699C17.2278 43.699 8.41724 34.6072 8.41724 23.4312C8.41724 12.2553 17.2278 3.16345 28.058 3.16345C38.8881 3.16345 47.6987 12.2553 47.6987 23.4312C47.6987 34.6072 38.8881 43.699 28.058 43.699ZM28.058 8.95425C20.3229 8.95425 14.0289 15.4492 14.0289 23.4312C14.0289 31.4133 20.3229 37.9082 28.058 37.9082C35.793 37.9082 42.087 31.4133 42.087 23.4312C42.087 15.4492 35.793 8.95425 28.058 8.95425Z" fill="#29166F"/>
<path d="M28.059 26.3266C26.5096 26.3266 25.2532 25.03 25.2532 23.4312V14.745C25.2532 13.1462 26.5096 11.8496 28.059 11.8496C29.6084 11.8496 30.8648 13.1462 30.8648 14.745V23.4312C30.8648 25.03 29.6084 26.3266 28.059 26.3266Z" fill="#29166F"/>
<path d="M28.059 35.0128C29.6086 35.0128 30.8648 33.7165 30.8648 32.1174C30.8648 30.5184 29.6086 29.222 28.059 29.222C26.5094 29.222 25.2532 30.5184 25.2532 32.1174C25.2532 33.7165 26.5094 35.0128 28.059 35.0128Z" fill="#29166F"/>
</svg>
