<svg width="56" height="38" viewBox="0 0 56 38" fill="none" xmlns="http://www.w3.org/2000/svg">
<path d="M21.475 0C3.64199 0 0 14.82 0 18.7881C0 23.7 5.45284 38 22.11 38C29.929 38 32.7562 33.291 32.7562 30.1541V7.28226C32.7562 7.21312 32.6605 0.261531 22.155 0.0496019L21.475 0ZM40.4142 6.34135C39.482 6.34135 38.7368 7.11391 38.7368 8.07887C38.7368 9.04533 39.482 9.81789 40.4142 9.81789H54.3225C55.2548 9.81789 56 9.04533 56 8.07887C56 7.11391 55.2548 6.34135 54.3225 6.34135H40.4142ZM40.4142 17.2384C39.482 17.2384 38.7368 18.0561 38.7368 19.024C38.7368 19.989 39.482 20.7616 40.4142 20.7616H54.3225C55.2548 20.7616 56 19.989 56 19.024C56 18.0561 55.2548 17.2384 54.3225 17.2384H40.4142ZM40.4142 28.1821C39.482 28.1821 38.7368 28.9547 38.7368 29.9211C38.7368 30.8876 39.482 31.6586 40.4142 31.6586H54.3225C55.2548 31.6586 56 30.8876 56 29.9211C56 28.9547 55.2548 28.1821 54.3225 28.1821H40.4142Z" fill="#29166F"/>
</svg>
