<svg width="50" height="50" viewBox="0 0 50 50" fill="none" xmlns="http://www.w3.org/2000/svg">
<path d="M15.3001 9.8C14.8001 10.4 1.1001 25.4 1.1001 33.5C1.1001 41.8 7.8001 48.5 16.1001 48.5C24.4001 48.5 31.1001 41.8 31.1001 33.5C31.1001 25.5 17.4001 10.4 16.8001 9.8C16.4001 9.4 15.7001 9.4 15.3001 9.8ZM19.7001 43C19.7001 43.6 19.3001 44 18.7001 44C11.7001 44 6.0001 38.3 6.0001 31.3C6.0001 30.7 6.4001 30.3 7.0001 30.3C7.6001 30.3 8.0001 30.7 8.0001 31.3C8.0001 37.2 12.8001 42 18.7001 42C19.3001 42 19.7001 42.4 19.7001 43ZM37.0001 1.5C30.4001 1.5 25.0001 6.9 25.0001 13.5C25.0001 20.1 30.4001 25.5 37.0001 25.5C43.6001 25.5 49.0001 20.1 49.0001 13.5C48.9001 6.9 43.6001 1.5 37.0001 1.5ZM37.0001 21.5C32.6001 21.5 29.0001 17.9 29.0001 13.5C29.0001 12.9 29.4001 12.5 30.0001 12.5C30.6001 12.5 31.0001 12.9 31.0001 13.5C31.0001 16.8 33.7001 19.5 37.0001 19.5C37.6001 19.5 38.0001 19.9 38.0001 20.5C38.0001 21.1 37.5001 21.5 37.0001 21.5Z" fill="#29166F"/>
</svg>
