<svg width="54" height="54" viewBox="0 0 54 54" fill="none" xmlns="http://www.w3.org/2000/svg">
<path d="M28.9287 42.4286C26.2587 42.4286 23.6486 41.6368 21.4285 40.1534C19.2085 38.67 17.4781 36.5616 16.4563 34.0948C15.4346 31.628 15.1672 28.9136 15.6881 26.2949C16.209 23.6761 17.4948 21.2707 19.3828 19.3827C21.2708 17.4946 23.6763 16.2089 26.295 15.688C28.9137 15.1671 31.6281 15.4344 34.0949 16.4562C36.5617 17.478 38.6702 19.2083 40.1536 21.4284C41.637 23.6485 42.4287 26.2585 42.4287 28.9286C42.4287 32.509 41.0064 35.9428 38.4747 38.4745C35.9429 41.0063 32.5091 42.4286 28.9287 42.4286ZM28.9287 19.2857C27.0215 19.2857 25.1572 19.8513 23.5714 20.9109C21.9857 21.9704 20.7497 23.4764 20.0199 25.2384C19.29 27.0004 19.0991 28.9393 19.4711 30.8098C19.8432 32.6804 20.7616 34.3985 22.1102 35.7471C23.4588 37.0957 25.177 38.0141 27.0475 38.3862C28.918 38.7582 30.8569 38.5673 32.6189 37.8374C34.3809 37.1076 35.8869 35.8716 36.9465 34.2859C38.006 32.7001 38.5716 30.8358 38.5716 28.9286C38.5716 26.3712 37.5556 23.9185 35.7472 22.1101C33.9389 20.3017 31.4862 19.2857 28.9287 19.2857Z" fill="#29166F"/>
<path d="M23.1429 31.8214C23.9101 31.8214 24.6459 31.5166 25.1884 30.9741C25.7309 30.4316 26.0357 29.6958 26.0357 28.9286C26.0357 28.1613 25.7309 27.4255 25.1884 26.883C24.6459 26.3405 23.9101 26.0357 23.1429 26.0357C22.3756 26.0357 21.6398 26.3405 21.0973 26.883C20.5548 27.4255 20.25 28.1613 20.25 28.9286C20.25 29.6958 20.5548 30.4316 21.0973 30.9741C21.6398 31.5166 22.3756 31.8214 23.1429 31.8214ZM34.7143 31.8214C35.4815 31.8214 36.2173 31.5166 36.7598 30.9741C37.3024 30.4316 37.6071 29.6958 37.6071 28.9286C37.6071 28.1613 37.3024 27.4255 36.7598 26.883C36.2173 26.3405 35.4815 26.0357 34.7143 26.0357C33.9471 26.0357 33.2112 26.3405 32.6687 26.883C32.1262 27.4255 31.8214 28.1613 31.8214 28.9286C31.8214 29.6958 32.1262 30.4316 32.6687 30.9741C33.2112 31.5166 33.9471 31.8214 34.7143 31.8214ZM28.9286 26.0357C29.6958 26.0357 30.4316 25.7309 30.9741 25.1884C31.5166 24.6459 31.8214 23.9101 31.8214 23.1429C31.8214 22.3756 31.5166 21.6398 30.9741 21.0973C30.4316 20.5548 29.6958 20.25 28.9286 20.25C28.1613 20.25 27.4255 20.5548 26.883 21.0973C26.3405 21.6398 26.0357 22.3756 26.0357 23.1429C26.0357 23.9101 26.3405 24.6459 26.883 25.1884C27.4255 25.7309 28.1613 26.0357 28.9286 26.0357ZM28.9286 37.6071C29.6958 37.6071 30.4316 37.3024 30.9741 36.7598C31.5166 36.2173 31.8214 35.4815 31.8214 34.7143C31.8214 33.9471 31.5166 33.2112 30.9741 32.6687C30.4316 32.1262 29.6958 31.8214 28.9286 31.8214C28.1613 31.8214 27.4255 32.1262 26.883 32.6687C26.3405 33.2112 26.0357 33.9471 26.0357 34.7143C26.0357 35.4815 26.3405 36.2173 26.883 36.7598C27.4255 37.3024 28.1613 37.6071 28.9286 37.6071Z" fill="#29166F"/>
<path d="M17.5307 28.9286H1.92857C1.41708 28.9286 0.926543 28.7254 0.564865 28.3637C0.203188 28.002 0 27.5115 0 27C0 19.8392 2.84463 12.9716 7.90812 7.90812C12.9716 2.84463 19.8392 0 27 0C27.5115 0 28.002 0.203188 28.3637 0.564865C28.7254 0.926543 28.9286 1.41708 28.9286 1.92857V17.5307C28.9353 17.9902 28.7777 18.4369 28.4842 18.7905C28.1907 19.144 27.7807 19.3812 27.3279 19.4593C25.3578 19.7946 23.5406 20.7338 22.1276 22.1469C20.7145 23.5599 19.7754 25.3771 19.44 27.3471C19.3584 27.7931 19.1223 28.1961 18.7731 28.4853C18.424 28.7745 17.9841 28.9314 17.5307 28.9286ZM3.85714 25.0714H16.0071C16.6485 22.9277 17.8126 20.977 19.3948 19.3948C20.977 17.8126 22.9277 16.6485 25.0714 16.0071V3.85714C19.592 4.29757 14.4482 6.67407 10.5611 10.5611C6.67407 14.4482 4.29757 19.592 3.85714 25.0714Z" fill="#29166F"/>
<path d="M28.9286 53.9997C22.2793 53.9997 15.9022 51.3582 11.2004 46.6564C6.49862 41.9546 3.85718 35.5776 3.85718 28.9282C3.85718 28.2147 3.85718 27.5397 3.95361 26.8454C3.99247 26.3611 4.21269 25.9093 4.57025 25.5804C4.9278 25.2514 5.39633 25.0695 5.88218 25.0711H16.0072C16.6485 22.9274 17.8126 20.9767 19.3948 19.3945C20.9771 17.8123 22.9278 16.6481 25.0715 16.0068V5.88181C25.0699 5.39597 25.2518 4.92743 25.5807 4.56988C25.9097 4.21233 26.3615 3.99211 26.8458 3.95324C27.54 3.85681 28.215 3.85681 28.9286 3.85681C35.578 3.85681 41.955 6.49826 46.6568 11.2001C51.3586 15.9019 54 22.2789 54 28.9282C54 35.5776 51.3586 41.9546 46.6568 46.6564C41.955 51.3582 35.578 53.9997 28.9286 53.9997ZM7.71432 28.9282C7.71432 33.124 8.95852 37.2256 11.2896 40.7143C13.6206 44.2029 16.9338 46.922 20.8103 48.5277C24.6867 50.1333 28.9521 50.5535 33.0673 49.7349C37.1825 48.9163 40.9625 46.8959 43.9294 43.929C46.8962 40.9621 48.9167 37.1821 49.7353 33.0669C50.5538 28.9518 50.1337 24.6863 48.5281 20.8099C46.9224 16.9335 44.2033 13.6203 40.7146 11.2892C37.226 8.95815 33.1244 7.71395 28.9286 7.71395V17.5304C28.9353 17.9898 28.7777 18.4366 28.4842 18.7901C28.1908 19.1437 27.7807 19.3809 27.3279 19.459C25.3579 19.7943 23.5407 20.7335 22.1276 22.1465C20.7145 23.5596 19.7754 25.3768 19.44 27.3468C19.362 27.7996 19.1248 28.2097 18.7712 28.5032C18.4176 28.7966 17.9709 28.9542 17.5115 28.9475L7.71432 28.9282Z" fill="#29166F"/>
</svg>
