<svg width="40" height="46" viewBox="0 0 40 46" fill="none" xmlns="http://www.w3.org/2000/svg">
<path fill-rule="evenodd" clip-rule="evenodd" d="M13.8508 29.1264H13.8462C12.7188 29.1288 11.6312 29.5424 10.7886 30.2892C9.94597 31.036 9.40652 32.0644 9.27197 33.1804C9.13742 34.2965 9.41708 35.4231 10.0582 36.3477C10.6993 37.2723 11.6576 37.9311 12.7523 38.1998L15.0446 43.9138C15.2915 44.5295 15.7178 45.0574 16.2684 45.4292C16.819 45.8011 17.4688 45.9999 18.1338 46H21.8662C23.2262 46 24.4492 45.1747 24.9554 43.9138L27.2477 38.1998C28.3424 37.9311 29.3007 37.2723 29.9418 36.3477C30.5829 35.4231 30.8626 34.2965 30.728 33.1804C30.5935 32.0644 30.054 31.036 29.2114 30.2892C28.3688 29.5424 27.2812 29.1288 26.1538 29.1264H26.1492L26.1415 25.9557C28.016 24.8797 29.573 23.3301 30.6555 21.463C31.738 19.596 32.3079 17.4774 32.3077 15.3208C32.3077 8.54833 26.7923 3.04907 20 3.04907C13.2077 3.04907 7.69231 8.54833 7.69231 15.3208C7.6921 17.4774 8.26197 19.596 9.3445 21.463C10.427 23.3301 11.984 24.8797 13.8585 25.9557L13.8508 29.1264ZM23.8815 38.3302H16.1185L17.9015 42.7756C17.9204 42.8217 17.9525 42.8611 17.9939 42.889C18.0352 42.9168 18.0839 42.9318 18.1338 42.9321H21.8662C21.9161 42.9318 21.9648 42.9168 22.0061 42.889C22.0475 42.8611 22.0796 42.8217 22.0985 42.7756L23.8815 38.3302ZM26.1738 35.2623C26.5819 35.2596 26.9721 35.0955 27.2588 34.8059C27.5454 34.5164 27.705 34.1252 27.7023 33.7183C27.6997 33.3115 27.535 32.9224 27.2446 32.6366C26.9542 32.3508 26.5619 32.1917 26.1538 32.1943H13.8462C13.4381 32.1917 13.0458 32.3508 12.7554 32.6366C12.465 32.9224 12.3003 33.3115 12.2977 33.7183C12.295 34.1252 12.4546 34.5164 12.7412 34.8059C13.0279 35.0955 13.4181 35.2596 13.8262 35.2623H26.1738ZM23.0723 29.1264L23.0615 25.0353C23.0606 24.7441 23.1429 24.4585 23.2987 24.2121C23.4545 23.9658 23.6775 23.7687 23.9415 23.644C25.5231 22.8984 26.8598 21.7203 27.7961 20.2468C28.7325 18.7734 29.23 17.0651 29.2308 15.3208C29.2308 10.2418 25.0938 6.117 20 6.117C14.9062 6.117 10.7692 10.2418 10.7692 15.3208C10.77 17.0651 11.2675 18.7734 12.2039 20.2468C13.1402 21.7203 14.4769 22.8984 16.0585 23.644C16.3225 23.7687 16.5455 23.9658 16.7013 24.2121C16.8571 24.4585 16.9394 24.7441 16.9385 25.0353L16.9277 29.1264H18.4615V22.0917L15.8354 19.4732C15.5551 19.1839 15.4001 18.7964 15.4036 18.3942C15.4071 17.992 15.5689 17.6073 15.8541 17.3229C16.1394 17.0385 16.5252 16.8771 16.9286 16.8736C17.332 16.8701 17.7206 17.0248 18.0108 17.3042L20 19.2876L21.9892 17.3042C22.2794 17.0248 22.668 16.8701 23.0714 16.8736C23.4748 16.8771 23.8606 17.0385 24.1459 17.3229C24.4311 17.6073 24.5929 17.992 24.5964 18.3942C24.5999 18.7964 24.4449 19.1839 24.1646 19.4732L21.5385 22.0917V29.1264H23.0723ZM34.2969 19.4732L37.3738 22.5411C37.664 22.8205 38.0526 22.9752 38.456 22.9717C38.8594 22.9682 39.2452 22.8068 39.5305 22.5224C39.8157 22.238 39.9775 21.8533 39.981 21.4511C39.9845 21.0489 39.8295 20.6614 39.5492 20.3721L36.4723 17.3042C36.1822 17.0248 35.7935 16.8701 35.3902 16.8736C34.9868 16.8771 34.6009 17.0385 34.3157 17.3229C34.0304 17.6073 33.8686 17.992 33.8651 18.3942C33.8616 18.7964 34.0167 19.1839 34.2969 19.4732ZM3.52769 17.3042L0.450769 20.3721C0.170526 20.6614 0.0154578 21.0489 0.0189631 21.4511C0.0224683 21.8533 0.184267 22.238 0.46951 22.5224C0.754753 22.8068 1.14062 22.9682 1.544 22.9717C1.94738 22.9752 2.336 22.8205 2.62615 22.5411L5.70308 19.4732C5.98332 19.1839 6.13839 18.7964 6.13488 18.3942C6.13138 17.992 5.96958 17.6073 5.68434 17.3229C5.39909 17.0385 5.01323 16.8771 4.60985 16.8736C4.20647 16.8701 3.81785 17.0248 3.52769 17.3042ZM4.61538 9.18492H1.53846C1.13044 9.18492 0.739122 9.34653 0.450605 9.63421C0.162087 9.92188 0 10.312 0 10.7189C0 11.1257 0.162087 11.5159 0.450605 11.8036C0.739122 12.0912 1.13044 12.2528 1.53846 12.2528H4.61538C5.02341 12.2528 5.41472 12.0912 5.70324 11.8036C5.99176 11.5159 6.15385 11.1257 6.15385 10.7189C6.15385 10.312 5.99176 9.92188 5.70324 9.63421C5.41472 9.34653 5.02341 9.18492 4.61538 9.18492ZM35.3846 12.2528H38.4615C38.8696 12.2528 39.2609 12.0912 39.5494 11.8036C39.8379 11.5159 40 11.1257 40 10.7189C40 10.312 39.8379 9.92188 39.5494 9.63421C39.2609 9.34653 38.8696 9.18492 38.4615 9.18492H35.3846C34.9766 9.18492 34.5853 9.34653 34.2968 9.63421C34.0082 9.92188 33.8462 10.312 33.8462 10.7189C33.8462 11.1257 34.0082 11.5159 34.2968 11.8036C34.5853 12.0912 34.9766 12.2528 35.3846 12.2528ZM10.3185 3.49852L7.24154 0.430601C6.95138 0.151178 6.56276 -0.00343702 6.15938 5.79878e-05C5.756 0.003553 5.37014 0.164878 5.08489 0.449287C4.79965 0.733696 4.63785 1.11843 4.63435 1.52063C4.63084 1.92283 4.78591 2.31031 5.06615 2.59962L8.14308 5.66755C8.43323 5.94697 8.82185 6.10158 9.22523 6.09809C9.62861 6.09459 10.0145 5.93327 10.2997 5.64886C10.585 5.36445 10.7468 4.97971 10.7503 4.57752C10.7538 4.17532 10.5987 3.78783 10.3185 3.49852ZM31.8569 5.66755L34.9338 2.59962C35.2141 2.31031 35.3692 1.92283 35.3657 1.52063C35.3621 1.11843 35.2003 0.733696 34.9151 0.449287C34.6299 0.164878 34.244 0.003553 33.8406 5.79878e-05C33.4372 -0.00343702 33.0486 0.151178 32.7585 0.430601L29.6815 3.49852C29.4013 3.78783 29.2462 4.17532 29.2497 4.57752C29.2532 4.97971 29.415 5.36445 29.7003 5.64886C29.9855 5.93327 30.3714 6.09459 30.7748 6.09809C31.1781 6.10158 31.5668 5.94697 31.8569 5.66755Z" fill="#29166F"/>
</svg>
