<svg width="39" height="46" viewBox="0 0 39 46" fill="none" xmlns="http://www.w3.org/2000/svg">
<path d="M33.8134 26.8969C34.2008 25.6138 33.4503 24.2581 32.1672 23.8949C31.9251 23.8223 31.7072 23.7496 31.4651 23.7012C31.4409 21.5466 31.0051 19.4645 30.2062 17.5762L17.0603 26.9695C21.6844 26.7032 26.3326 27.2116 30.8114 28.5432C32.0945 28.9063 33.4503 28.18 33.8134 26.8969ZM23.6727 45.9392C23.8499 45.9794 24.0296 45.9983 24.2046 45.9983C25.3134 45.9983 26.3111 45.2347 26.5641 44.1068L28.985 33.3166C29.2499 32.1344 28.602 30.9406 27.4671 30.5172C22.2373 28.5739 16.4829 28.5739 11.2532 30.5172C10.1182 30.9404 9.47062 32.1344 9.73523 33.3166L12.1562 44.1068C12.4494 45.4141 13.7497 46.237 15.0476 45.939C16.3527 45.6458 17.1729 44.3525 16.8797 43.0476L14.9481 34.4324C17.8607 33.7042 20.8586 33.7042 23.7713 34.4324L21.8396 43.0476C21.5471 44.3528 22.3676 45.646 23.6727 45.9392ZM0.452536 32.8767C0.912519 33.5303 1.66302 33.8935 2.41352 33.8935C2.89771 33.8935 3.40611 33.7482 3.81768 33.4335L12.0247 27.5748L29.0441 15.4215L37.7112 9.22387C38.8006 8.44916 39.0427 6.94816 38.268 5.85873C37.4933 4.7693 35.9923 4.5272 34.9028 5.30191L25.7516 11.8385C25.5841 11.71 25.4049 11.6095 25.2321 11.4935C26.0976 10.2981 26.6231 8.84305 26.6231 7.26289C26.6231 3.2683 23.3548 0 19.3603 0C15.3657 0 12.0974 3.2683 12.0974 7.26289C12.0974 8.85056 12.6288 10.3111 13.5018 11.5097C10.2502 13.6431 7.89676 17.4578 7.37649 21.9823C7.30386 22.5392 7.25544 23.1202 7.25544 23.7012C7.01335 23.7496 6.79546 23.8223 6.55336 23.8949C5.31867 24.2338 4.56817 25.517 4.8829 26.7516L1.00936 29.5115C-0.0800756 30.2862 -0.322172 31.7872 0.452536 32.8767Z" fill="#29166F"/>
</svg>
