<svg width="50" height="50" viewBox="0 0 50 50" fill="none" xmlns="http://www.w3.org/2000/svg">
<path d="M25 0C11.1937 0 0 11.1937 0 25C0 38.8063 11.1937 50 25 50C38.8063 50 50 38.8063 50 25C50 11.1937 38.8063 0 25 0ZM25 6.25C33.1359 6.25 40.0078 11.4906 42.6031 18.75H7.39688C9.99219 11.4906 16.8641 6.25 25 6.25ZM25 28.125C24.5838 28.1344 24.17 28.0606 23.7828 27.9079C23.3955 27.7551 23.0427 27.5266 22.745 27.2356C22.4474 26.9447 22.2108 26.5972 22.0493 26.2135C21.8877 25.8299 21.8045 25.4178 21.8043 25.0016C21.8042 24.5853 21.8873 24.1732 22.0487 23.7895C22.21 23.4058 22.4464 23.0582 22.7439 22.7671C23.0415 22.476 23.3942 22.2472 23.7813 22.0943C24.1685 21.9414 24.5823 21.8674 24.9984 21.8766C25.8149 21.8946 26.5919 22.2316 27.1631 22.8154C27.7342 23.3991 28.0541 24.1833 28.0543 25C28.0546 25.8167 27.735 26.601 27.1642 27.1851C26.5933 27.7692 25.8165 28.1065 25 28.125ZM6.25 25C14.7891 25 21.7047 33.2281 21.85 43.4328C13.0125 41.9188 6.25 34.2594 6.25 25ZM28.15 43.4328C28.2953 33.2281 35.2109 25 43.75 25C43.75 34.2594 36.9875 41.9188 28.15 43.4328Z" fill="#29166F"/>
</svg>
