<svg width="45" height="45" viewBox="0 0 45 45" fill="none" xmlns="http://www.w3.org/2000/svg">
<path d="M11.925 26.4825L7.965 22.5L11.925 18.5175L7.965 14.535L0 22.5L7.965 30.465L11.925 26.4825ZM30.465 37.035L26.4825 33.075L22.5 37.035L18.5175 33.075L14.535 37.035L22.5 45L30.465 37.035ZM37.035 30.465L45 22.5L37.035 14.535L33.075 18.5175L37.035 22.5L33.075 26.4825L37.035 30.465ZM22.5 7.965L26.4825 11.925L30.465 7.965L22.5 0L14.535 7.965L18.5175 11.925L22.5 7.965Z" fill="#29166F"/>
<path d="M23 30C26.866 30 30 26.866 30 23C30 19.134 26.866 16 23 16C19.134 16 16 19.134 16 23C16 26.866 19.134 30 23 30Z" fill="#29166F"/>
</svg>
