<svg width="49" height="44" viewBox="0 0 49 44" fill="none" xmlns="http://www.w3.org/2000/svg">
<path d="M7.61182 14.2752C9.90712 12.4749 11.8113 13.7165 14.3526 16.6864C14.6379 17.0216 15.0217 16.6293 15.2407 16.4381C15.4572 16.2444 18.8103 13.1975 18.9752 13.0585C19.1375 12.912 19.3343 12.6388 19.076 12.3334C18.4538 11.5565 17.8444 10.7693 17.2481 9.97192C12.8002 4.09923 29.4159 0.116229 26.8648 0.0541494C25.5658 0.0193851 20.3553 -0.0426939 19.5754 0.0442169C16.4191 0.379444 12.4558 3.35676 10.4607 4.74485C7.85046 6.54763 6.87625 7.60546 6.71634 7.75197C5.9783 8.40256 6.59825 9.90487 5.25994 11.0893C3.84537 12.3384 2.96218 11.3923 2.14296 12.1174C1.73704 12.4799 0.600461 13.3391 0.275724 13.6247C-0.0514731 13.9152 -0.110516 14.4044 0.224061 14.7942C0.224061 14.7942 3.33366 18.2607 3.59444 18.5686C3.85275 18.8716 4.55635 19.1348 4.98933 18.7449C5.42477 18.3576 6.54413 17.3718 6.7311 17.1979C6.92299 17.034 6.60809 15.0599 7.61182 14.2752ZM21.6542 15.559C21.359 15.2139 20.9925 15.2039 20.6776 15.487L17.1497 18.596C17.0135 18.7207 16.9305 18.8939 16.9181 19.0791C16.9058 19.2643 16.965 19.4471 17.0833 19.5892L37.4876 43.0278C37.9649 43.5816 38.7915 43.6387 39.3352 43.1594L41.7215 41.1406C41.9842 40.9072 42.1449 40.5785 42.1689 40.2261C42.1928 39.8736 42.078 39.5259 41.8494 39.2584L21.6542 15.559ZM48.8608 5.58416C48.6787 4.35748 48.0489 4.61324 47.7217 5.13222C47.3945 5.65617 45.948 7.86867 45.3526 8.87187C44.7622 9.86514 43.3058 11.8293 40.5948 9.88997C37.7705 7.87612 38.7521 6.47065 39.2441 5.52457C39.7386 4.57351 41.2565 1.90659 41.4755 1.57633C41.6944 1.2411 41.4386 0.267702 40.5628 0.674941C39.6845 1.08218 34.3559 3.22019 33.6178 6.2869C32.8626 9.40576 34.2501 12.1944 31.5267 14.9631L28.2228 18.4395L31.5415 22.3282L35.6105 18.4296C36.5798 17.4462 38.6513 16.4902 40.5259 16.9223C44.5433 17.8386 46.7352 16.3164 48.0563 13.7985C49.2421 11.5487 49.0453 6.81085 48.8608 5.58416ZM6.63761 39.5117C6.39154 39.7619 6.25344 40.1002 6.25344 40.4528C6.25344 40.8054 6.39154 41.1437 6.63761 41.3939L8.9772 43.7032C9.4889 44.2222 10.3007 44.0037 10.8124 43.4847L22.8843 31.5059L19.1867 27.2498L6.63761 39.5117Z" fill="#29166F"/>
</svg>
